  0
SECTION
  2
HEADER
999
Alias DesignStudio for Windows V10.0.
999
The units used in this file are Millimeters.
  9
$AUNITS
 70
0
  9
$FILLMODE
 70
1
  9
$SPLFRAME
 70
0
  9
$SPLINESEGS
 70
8
  0
ENDSEC
  0
SECTION
  2
TABLES
  0
ENDSEC
  0
SECTION
  2
BLOCKS
  0
ENDSEC
  0
SECTION
  2
ENTITIES
  0
POLYLINE
  8
0
 62
253
 66
1
 70
20
 75
6
 71
4
 72
4
 73
2
 74
2
  0
VERTEX
  8
0
 10
0.0
 20
11.999981722959
 30
2.094394039078E-002
 70
72
  0
VERTEX
  8
0
 10
-0.8
 20
10.199984464516
 30
1.780234933216E-002
 70
72
  0
VERTEX
  8
0
 10
0.0
 20
11.999981722959
 30
2.094394039078E-002
 70
72
  0
VERTEX
  8
0
 10
0.0
 20
10.201380727208
 30
-0.782196432198
 70
72
  0
VERTEX
  8
0
 10
0.0
 20
11.999981722959
 30
2.094394039078E-002
 70
80
  0
VERTEX
  8
0
 10
-3.2
 20
11.999981722959
 30
2.094394039078E-002
 70
80
  0
VERTEX
  8
0
 10
0.0
 20
10.799983550664
 30
1.884954635170E-002
 70
80
  0
VERTEX
  8
0
 10
-0.8
 20
10.199984464516
 30
1.780234933216E-002
 70
80
  0
VERTEX
  8
0
 10
0.0
 20
11.999981722959
 30
2.094394039078E-002
 70
80
  0
VERTEX
  8
0
 10
-3.2
 20
12.003123314018
 30
-1.779053318053
 70
80
  0
VERTEX
  8
0
 10
0.0
 20
10.799983550664
 30
1.884954635170E-002
 70
80
  0
VERTEX
  8
0
 10
-0.8
 20
10.200766371627
 30
-0.430196970232
 70
80
  0
VERTEX
  8
0
 10
0.0
 20
11.999981722959
 30
2.094394039078E-002
 70
80
  0
VERTEX
  8
0
 10
-1.8
 20
12.00556677373
 30
-3.179051185732
 70
80
  0
VERTEX
  8
0
 10
0.0
 20
10.799983550664
 30
1.884954635170E-002
 70
80
  0
VERTEX
  8
0
 10
-0.448000001907
 20
10.201380727208
 30
-0.782196432198
 70
80
  0
VERTEX
  8
0
 10
0.0
 20
11.999981722959
 30
2.094394039078E-002
 70
80
  0
VERTEX
  8
0
 10
0.0
 20
12.00556677373
 30
-3.179051185732
 70
80
  0
VERTEX
  8
0
 10
0.0
 20
10.799983550664
 30
1.884954635170E-002
 70
80
  0
VERTEX
  8
0
 10
0.0
 20
10.201380727208
 30
-0.782196432198
 70
80
  0
SEQEND
  0
POLYLINE
  8
0
 62
253
 66
1
 70
20
 75
6
 71
4
 72
4
 73
2
 74
2
  0
VERTEX
  8
0
 10
0.0
 20
11.999981722959
 30
2.094394039078E-002
 70
72
  0
VERTEX
  8
0
 10
1.0E-016
 20
10.201380727208
 30
-0.782196432198
 70
72
  0
VERTEX
  8
0
 10
0.0
 20
11.999981722959
 30
2.094394039078E-002
 70
72
  0
VERTEX
  8
0
 10
0.8
 20
10.199984464516
 30
1.780234933216E-002
 70
72
  0
VERTEX
  8
0
 10
0.0
 20
11.999981722959
 30
2.094394039078E-002
 70
80
  0
VERTEX
  8
0
 10
5.0E-016
 20
12.00556677373
 30
-3.179051185732
 70
80
  0
VERTEX
  8
0
 10
0.0
 20
10.799983550664
 30
1.884954635170E-002
 70
80
  0
VERTEX
  8
0
 10
1.0E-016
 20
10.201380727208
 30
-0.782196432198
 70
80
  0
VERTEX
  8
0
 10
0.0
 20
11.999981722959
 30
2.094394039078E-002
 70
80
  0
VERTEX
  8
0
 10
1.8
 20
12.00556677373
 30
-3.179051185732
 70
80
  0
VERTEX
  8
0
 10
0.0
 20
10.799983550664
 30
1.884954635170E-002
 70
80
  0
VERTEX
  8
0
 10
0.448000001907
 20
10.201380727208
 30
-0.782196432198
 70
80
  0
VERTEX
  8
0
 10
0.0
 20
11.999981722959
 30
2.094394039078E-002
 70
80
  0
VERTEX
  8
0
 10
3.2
 20
12.003123314018
 30
-1.779053318053
 70
80
  0
VERTEX
  8
0
 10
0.0
 20
10.799983550664
 30
1.884954635170E-002
 70
80
  0
VERTEX
  8
0
 10
0.8
 20
10.200766371627
 30
-0.430196970232
 70
80
  0
VERTEX
  8
0
 10
0.0
 20
11.999981722959
 30
2.094394039078E-002
 70
80
  0
VERTEX
  8
0
 10
3.2
 20
11.999981722959
 30
2.094394039078E-002
 70
80
  0
VERTEX
  8
0
 10
0.0
 20
10.799983550664
 30
1.884954635170E-002
 70
80
  0
VERTEX
  8
0
 10
0.8
 20
10.199984464516
 30
1.780234933216E-002
 70
80
  0
SEQEND
  0
POLYLINE
  8
0
 62
253
 66
1
 70
20
 75
6
 71
4
 72
4
 73
2
 74
2
  0
VERTEX
  8
0
 10
0.0
 20
11.999981722959
 30
2.094394039078E-002
 70
72
  0
VERTEX
  8
0
 10
0.8
 20
10.199984464516
 30
1.780234933216E-002
 70
72
  0
VERTEX
  8
0
 10
0.0
 20
11.999981722959
 30
2.094394039078E-002
 70
72
  0
VERTEX
  8
0
 10
-9.796850830579E-017
 20
10.198588201823
 30
0.817801130863
 70
72
  0
VERTEX
  8
0
 10
0.0
 20
11.999981722959
 30
2.094394039078E-002
 70
80
  0
VERTEX
  8
0
 10
3.2
 20
11.999981722959
 30
2.094394039078E-002
 70
80
  0
VERTEX
  8
0
 10
0.0
 20
10.799983550664
 30
1.884954635170E-002
 70
80
  0
VERTEX
  8
0
 10
0.8
 20
10.199984464516
 30
1.780234933216E-002
 70
80
  0
VERTEX
  8
0
 10
0.0
 20
11.999981722959
 30
2.094394039078E-002
 70
80
  0
VERTEX
  8
0
 10
3.2
 20
11.996840131901
 30
1.820941198835
 70
80
  0
VERTEX
  8
0
 10
0.0
 20
10.799983550664
 30
1.884954635170E-002
 70
80
  0
VERTEX
  8
0
 10
0.8
 20
10.199202557404
 30
0.465801668897
 70
80
  0
VERTEX
  8
0
 10
0.0
 20
11.999981722959
 30
2.094394039078E-002
 70
80
  0
VERTEX
  8
0
 10
1.8
 20
11.994396672189
 30
3.220939066513
 70
80
  0
VERTEX
  8
0
 10
0.0
 20
10.799983550664
 30
1.884954635170E-002
 70
80
  0
VERTEX
  8
0
 10
0.448000001907
 20
10.198588201823
 30
0.817801130863
 70
80
  0
VERTEX
  8
0
 10
0.0
 20
11.999981722959
 30
2.094394039078E-002
 70
80
  0
VERTEX
  8
0
 10
-4.0E-016
 20
11.994396672189
 30
3.220939066513
 70
80
  0
VERTEX
  8
0
 10
0.0
 20
10.799983550664
 30
1.884954635170E-002
 70
80
  0
VERTEX
  8
0
 10
-9.796850830579E-017
 20
10.198588201823
 30
0.817801130863
 70
80
  0
SEQEND
  0
POLYLINE
  8
0
 62
253
 66
1
 70
20
 75
6
 71
4
 72
4
 73
2
 74
2
  0
VERTEX
  8
0
 10
0.0
 20
11.999981722959
 30
2.094394039078E-002
 70
72
  0
VERTEX
  8
0
 10
-4.898424885894E-017
 20
10.198588201823
 30
0.817801130863
 70
72
  0
VERTEX
  8
0
 10
0.0
 20
11.999981722959
 30
2.094394039078E-002
 70
72
  0
VERTEX
  8
0
 10
-0.8
 20
10.199984464516
 30
1.780234933216E-002
 70
72
  0
VERTEX
  8
0
 10
0.0
 20
11.999981722959
 30
2.094394039078E-002
 70
80
  0
VERTEX
  8
0
 10
-2.0E-016
 20
11.994396672189
 30
3.220939066513
 70
80
  0
VERTEX
  8
0
 10
0.0
 20
10.799983550664
 30
1.884954635170E-002
 70
80
  0
VERTEX
  8
0
 10
-4.898424885894E-017
 20
10.198588201823
 30
0.817801130863
 70
80
  0
VERTEX
  8
0
 10
0.0
 20
11.999981722959
 30
2.094394039078E-002
 70
80
  0
VERTEX
  8
0
 10
-1.8
 20
11.994396672189
 30
3.220939066513
 70
80
  0
VERTEX
  8
0
 10
0.0
 20
10.799983550664
 30
1.884954635170E-002
 70
80
  0
VERTEX
  8
0
 10
-0.448000001907
 20
10.198588201823
 30
0.817801130863
 70
80
  0
VERTEX
  8
0
 10
0.0
 20
11.999981722959
 30
2.094394039078E-002
 70
80
  0
VERTEX
  8
0
 10
-3.2
 20
11.996840131901
 30
1.820941198835
 70
80
  0
VERTEX
  8
0
 10
0.0
 20
10.799983550664
 30
1.884954635170E-002
 70
80
  0
VERTEX
  8
0
 10
-0.8
 20
10.199202557404
 30
0.465801668897
 70
80
  0
VERTEX
  8
0
 10
0.0
 20
11.999981722959
 30
2.094394039078E-002
 70
80
  0
VERTEX
  8
0
 10
-3.2
 20
11.999981722959
 30
2.094394039078E-002
 70
80
  0
VERTEX
  8
0
 10
0.0
 20
10.799983550664
 30
1.884954635170E-002
 70
80
  0
VERTEX
  8
0
 10
-0.8
 20
10.199984464516
 30
1.780234933216E-002
 70
80
  0
SEQEND
  0
POLYLINE
  8
0
 62
253
 66
1
 70
20
 75
6
 71
4
 72
4
 73
2
 74
2
  0
VERTEX
  8
0
 10
-0.8
 20
10.199984464516
 30
1.780234933216E-002
 70
72
  0
VERTEX
  8
0
 10
-5.2
 20
8.99998629222
 30
1.570795529308E-002
 70
72
  0
VERTEX
  8
0
 10
0.0
 20
10.201380727208
 30
-0.782196432198
 70
72
  0
VERTEX
  8
0
 10
0.0
 20
9.009061999722
 30
-5.184284124656
 70
72
  0
VERTEX
  8
0
 10
-0.8
 20
10.199984464516
 30
1.780234933216E-002
 70
80
  0
VERTEX
  8
0
 10
-1.6
 20
9.599985378368
 30
1.675515231262E-002
 70
80
  0
VERTEX
  8
0
 10
-5.2
 20
9.599985378368
 30
1.675515231262E-002
 70
80
  0
VERTEX
  8
0
 10
-5.2
 20
8.99998629222
 30
1.570795529308E-002
 70
80
  0
VERTEX
  8
0
 10
-0.8
 20
10.200766371627
 30
-0.430196970232
 70
80
  0
VERTEX
  8
0
 10
-1.6
 20
9.60154919259
 30
-0.879243486816
 70
80
  0
VERTEX
  8
0
 10
-5.2
 20
9.605067774716
 30
-2.895240496382
 70
80
  0
VERTEX
  8
0
 10
-5.2
 20
9.005068688568
 30
-2.896287693402
 70
80
  0
VERTEX
  8
0
 10
-0.448000001907
 20
10.201380727208
 30
-0.782196432198
 70
80
  0
VERTEX
  8
0
 10
-0.896000003815
 20
9.602777903753
 30
-1.583242410749
 70
80
  0
VERTEX
  8
0
 10
-2.912000083923
 20
9.60906108587
 30
-5.183236927636
 70
80
  0
VERTEX
  8
0
 10
-2.912000083923
 20
9.009061999722
 30
-5.184284124656
 70
80
  0
VERTEX
  8
0
 10
0.0
 20
10.201380727208
 30
-0.782196432198
 70
80
  0
VERTEX
  8
0
 10
0.0
 20
9.602777903753
 30
-1.583242410749
 70
80
  0
VERTEX
  8
0
 10
0.0
 20
9.60906108587
 30
-5.183236927636
 70
80
  0
VERTEX
  8
0
 10
0.0
 20
9.009061999722
 30
-5.184284124656
 70
80
  0
SEQEND
  0
POLYLINE
  8
0
 62
253
 66
1
 70
20
 75
6
 71
4
 72
4
 73
2
 74
2
  0
VERTEX
  8
0
 10
1.0E-016
 20
10.201380727208
 30
-0.782196432198
 70
72
  0
VERTEX
  8
0
 10
8.0E-016
 20
9.009061999722
 30
-5.184284124656
 70
72
  0
VERTEX
  8
0
 10
0.8
 20
10.199984464516
 30
1.780234933216E-002
 70
72
  0
VERTEX
  8
0
 10
5.2
 20
8.99998629222
 30
1.570795529309E-002
 70
72
  0
VERTEX
  8
0
 10
1.0E-016
 20
10.201380727208
 30
-0.782196432198
 70
80
  0
VERTEX
  8
0
 10
3.0E-016
 20
9.602777903753
 30
-1.583242410749
 70
80
  0
VERTEX
  8
0
 10
8.0E-016
 20
9.60906108587
 30
-5.183236927636
 70
80
  0
VERTEX
  8
0
 10
8.0E-016
 20
9.009061999722
 30
-5.184284124656
 70
80
  0
VERTEX
  8
0
 10
0.448000001907
 20
10.201380727208
 30
-0.782196432198
 70
80
  0
VERTEX
  8
0
 10
0.896000003815
 20
9.602777903753
 30
-1.583242410749
 70
80
  0
VERTEX
  8
0
 10
2.912000083923
 20
9.60906108587
 30
-5.183236927636
 70
80
  0
VERTEX
  8
0
 10
2.912000083923
 20
9.009061999722
 30
-5.184284124656
 70
80
  0
VERTEX
  8
0
 10
0.8
 20
10.200766371627
 30
-0.430196970232
 70
80
  0
VERTEX
  8
0
 10
1.6
 20
9.60154919259
 30
-0.879243486816
 70
80
  0
VERTEX
  8
0
 10
5.2
 20
9.605067774716
 30
-2.895240496382
 70
80
  0
VERTEX
  8
0
 10
5.2
 20
9.005068688568
 30
-2.896287693402
 70
80
  0
VERTEX
  8
0
 10
0.8
 20
10.199984464516
 30
1.780234933216E-002
 70
80
  0
VERTEX
  8
0
 10
1.6
 20
9.599985378368
 30
1.675515231262E-002
 70
80
  0
VERTEX
  8
0
 10
5.2
 20
9.599985378368
 30
1.675515231262E-002
 70
80
  0
VERTEX
  8
0
 10
5.2
 20
8.99998629222
 30
1.570795529309E-002
 70
80
  0
SEQEND
  0
POLYLINE
  8
0
 62
253
 66
1
 70
20
 75
6
 71
4
 72
4
 73
2
 74
2
  0
VERTEX
  8
0
 10
0.8
 20
10.199984464516
 30
1.780234933216E-002
 70
72
  0
VERTEX
  8
0
 10
5.2
 20
8.99998629222
 30
1.570795529309E-002
 70
72
  0
VERTEX
  8
0
 10
-9.796850830579E-017
 20
10.198588201823
 30
0.817801130863
 70
72
  0
VERTEX
  8
0
 10
-6.0E-016
 20
8.990910584717
 30
5.215700035242
 70
72
  0
VERTEX
  8
0
 10
0.8
 20
10.199984464516
 30
1.780234933216E-002
 70
80
  0
VERTEX
  8
0
 10
1.6
 20
9.599985378368
 30
1.675515231262E-002
 70
80
  0
VERTEX
  8
0
 10
5.2
 20
9.599985378368
 30
1.675515231262E-002
 70
80
  0
VERTEX
  8
0
 10
5.2
 20
8.99998629222
 30
1.570795529309E-002
 70
80
  0
VERTEX
  8
0
 10
0.8
 20
10.199202557404
 30
0.465801668897
 70
80
  0
VERTEX
  8
0
 10
1.6
 20
9.598421564145
 30
0.912753791442
 70
80
  0
VERTEX
  8
0
 10
5.2
 20
9.59490298202
 30
2.928750801007
 70
80
  0
VERTEX
  8
0
 10
5.2
 20
8.994903895872
 30
2.927703603988
 70
80
  0
VERTEX
  8
0
 10
0.448000001907
 20
10.198588201823
 30
0.817801130863
 70
80
  0
VERTEX
  8
0
 10
0.896000003815
 20
9.597192852982
 30
1.616752715374
 70
80
  0
VERTEX
  8
0
 10
2.912000083923
 20
9.590909670865
 30
5.216747232262
 70
80
  0
VERTEX
  8
0
 10
2.912000083923
 20
8.990910584717
 30
5.215700035242
 70
80
  0
VERTEX
  8
0
 10
-9.796850830579E-017
 20
10.198588201823
 30
0.817801130863
 70
80
  0
VERTEX
  8
0
 10
-2.0E-016
 20
9.597192852982
 30
1.616752715374
 70
80
  0
VERTEX
  8
0
 10
-6.0E-016
 20
9.590909670865
 30
5.216747232262
 70
80
  0
VERTEX
  8
0
 10
-6.0E-016
 20
8.990910584717
 30
5.215700035242
 70
80
  0
SEQEND
  0
POLYLINE
  8
0
 62
253
 66
1
 70
20
 75
6
 71
4
 72
4
 73
2
 74
2
  0
VERTEX
  8
0
 10
-4.898424885894E-017
 20
10.198588201823
 30
0.817801130863
 70
72
  0
VERTEX
  8
0
 10
-3.0E-016
 20
8.990910584717
 30
5.215700035242
 70
72
  0
VERTEX
  8
0
 10
-0.8
 20
10.199984464516
 30
1.780234933216E-002
 70
72
  0
VERTEX
  8
0
 10
-5.2
 20
8.99998629222
 30
1.570795529308E-002
 70
72
  0
VERTEX
  8
0
 10
-4.898424885894E-017
 20
10.198588201823
 30
0.817801130863
 70
80
  0
VERTEX
  8
0
 10
-9.796850830579E-017
 20
9.597192852982
 30
1.616752715374
 70
80
  0
VERTEX
  8
0
 10
-3.0E-016
 20
9.590909670865
 30
5.216747232262
 70
80
  0
VERTEX
  8
0
 10
-3.0E-016
 20
8.990910584717
 30
5.215700035242
 70
80
  0
VERTEX
  8
0
 10
-0.448000001907
 20
10.198588201823
 30
0.817801130863
 70
80
  0
VERTEX
  8
0
 10
-0.896000003815
 20
9.597192852982
 30
1.616752715374
 70
80
  0
VERTEX
  8
0
 10
-2.912000083923
 20
9.590909670865
 30
5.216747232262
 70
80
  0
VERTEX
  8
0
 10
-2.912000083923
 20
8.990910584717
 30
5.215700035242
 70
80
  0
VERTEX
  8
0
 10
-0.8
 20
10.199202557404
 30
0.465801668897
 70
80
  0
VERTEX
  8
0
 10
-1.6
 20
9.598421564145
 30
0.912753791442
 70
80
  0
VERTEX
  8
0
 10
-5.2
 20
9.59490298202
 30
2.928750801007
 70
80
  0
VERTEX
  8
0
 10
-5.2
 20
8.994903895872
 30
2.927703603988
 70
80
  0
VERTEX
  8
0
 10
-0.8
 20
10.199984464516
 30
1.780234933216E-002
 70
80
  0
VERTEX
  8
0
 10
-1.6
 20
9.599985378368
 30
1.675515231262E-002
 70
80
  0
VERTEX
  8
0
 10
-5.2
 20
9.599985378368
 30
1.675515231262E-002
 70
80
  0
VERTEX
  8
0
 10
-5.2
 20
8.99998629222
 30
1.570795529308E-002
 70
80
  0
SEQEND
  0
POLYLINE
  8
0
 62
253
 66
1
 70
20
 75
6
 71
4
 72
4
 73
2
 74
2
  0
VERTEX
  8
0
 10
0.0
 20
9.008712934049
 30
-4.984284429273
 70
72
  0
VERTEX
  8
0
 10
0.0
 20
9.009760131069
 30
-5.584283515421
 70
72
  0
VERTEX
  8
0
 10
-5.0
 20
8.99998629222
 30
1.570795529308E-002
 70
72
  0
VERTEX
  8
0
 10
-5.6
 20
8.99998629222
 30
1.570795529308E-002
 70
72
  0
VERTEX
  8
0
 10
0.0
 20
9.008712934049
 30
-4.984284429273
 70
80
  0
VERTEX
  8
0
 10
0.0
 20
9.009061999722
 30
-5.184284124656
 70
80
  0
VERTEX
  8
0
 10
0.0
 20
9.009411065395
 30
-5.384283820039
 70
80
  0
VERTEX
  8
0
 10
0.0
 20
9.009760131069
 30
-5.584283515421
 70
80
  0
VERTEX
  8
0
 10
-2.8
 20
9.008712934049
 30
-4.984284429273
 70
80
  0
VERTEX
  8
0
 10
-2.912000083923
 20
9.009061999722
 30
-5.184284124656
 70
80
  0
VERTEX
  8
0
 10
-3.023999977112
 20
9.009411065395
 30
-5.384283820039
 70
80
  0
VERTEX
  8
0
 10
-3.136000061035
 20
9.009760131069
 30
-5.584283515421
 70
80
  0
VERTEX
  8
0
 10
-5.0
 20
9.004873211644
 30
-2.784287780064
 70
80
  0
VERTEX
  8
0
 10
-5.2
 20
9.005068688568
 30
-2.896287693402
 70
80
  0
VERTEX
  8
0
 10
-5.4
 20
9.005264165158
 30
-3.008287416005
 70
80
  0
VERTEX
  8
0
 10
-5.6
 20
9.005459642082
 30
-3.120287329342
 70
80
  0
VERTEX
  8
0
 10
-5.0
 20
8.99998629222
 30
1.570795529308E-002
 70
80
  0
VERTEX
  8
0
 10
-5.2
 20
8.99998629222
 30
1.570795529308E-002
 70
80
  0
VERTEX
  8
0
 10
-5.4
 20
8.99998629222
 30
1.570795529308E-002
 70
80
  0
VERTEX
  8
0
 10
-5.6
 20
8.99998629222
 30
1.570795529308E-002
 70
80
  0
SEQEND
  0
POLYLINE
  8
0
 62
253
 66
1
 70
20
 75
6
 71
4
 72
4
 73
2
 74
2
  0
VERTEX
  8
0
 10
5.0
 20
8.99998629222
 30
1.570795529309E-002
 70
72
  0
VERTEX
  8
0
 10
5.6
 20
8.99998629222
 30
1.570795529309E-002
 70
72
  0
VERTEX
  8
0
 10
8.0E-016
 20
9.008712934049
 30
-4.984284429273
 70
72
  0
VERTEX
  8
0
 10
9.0E-016
 20
9.009760131069
 30
-5.584283515421
 70
72
  0
VERTEX
  8
0
 10
5.0
 20
8.99998629222
 30
1.570795529309E-002
 70
80
  0
VERTEX
  8
0
 10
5.2
 20
8.99998629222
 30
1.570795529309E-002
 70
80
  0
VERTEX
  8
0
 10
5.4
 20
8.99998629222
 30
1.570795529309E-002
 70
80
  0
VERTEX
  8
0
 10
5.6
 20
8.99998629222
 30
1.570795529309E-002
 70
80
  0
VERTEX
  8
0
 10
5.0
 20
9.004873211644
 30
-2.784287780064
 70
80
  0
VERTEX
  8
0
 10
5.2
 20
9.005068688568
 30
-2.896287693402
 70
80
  0
VERTEX
  8
0
 10
5.4
 20
9.005264165158
 30
-3.008287416005
 70
80
  0
VERTEX
  8
0
 10
5.6
 20
9.005459642082
 30
-3.120287329342
 70
80
  0
VERTEX
  8
0
 10
2.8
 20
9.008712934049
 30
-4.984284429273
 70
80
  0
VERTEX
  8
0
 10
2.912000083923
 20
9.009061999722
 30
-5.184284124656
 70
80
  0
VERTEX
  8
0
 10
3.023999977112
 20
9.009411065395
 30
-5.384283820039
 70
80
  0
VERTEX
  8
0
 10
3.136000061035
 20
9.009760131069
 30
-5.584283515421
 70
80
  0
VERTEX
  8
0
 10
8.0E-016
 20
9.008712934049
 30
-4.984284429273
 70
80
  0
VERTEX
  8
0
 10
8.0E-016
 20
9.009061999722
 30
-5.184284124656
 70
80
  0
VERTEX
  8
0
 10
9.0E-016
 20
9.009411065395
 30
-5.384283820039
 70
80
  0
VERTEX
  8
0
 10
9.0E-016
 20
9.009760131069
 30
-5.584283515421
 70
80
  0
SEQEND
  0
POLYLINE
  8
0
 62
253
 66
1
 70
20
 75
6
 71
4
 72
4
 73
2
 74
2
  0
VERTEX
  8
0
 10
-6.0E-016
 20
8.99125965039
 30
5.01570033986
 70
72
  0
VERTEX
  8
0
 10
-7.0E-016
 20
8.990212453371
 30
5.615699426007
 70
72
  0
VERTEX
  8
0
 10
5.0
 20
8.99998629222
 30
1.570795529309E-002
 70
72
  0
VERTEX
  8
0
 10
5.6
 20
8.99998629222
 30
1.570795529309E-002
 70
72
  0
VERTEX
  8
0
 10
-6.0E-016
 20
8.99125965039
 30
5.01570033986
 70
80
  0
VERTEX
  8
0
 10
-6.0E-016
 20
8.990910584717
 30
5.215700035242
 70
80
  0
VERTEX
  8
0
 10
-7.0E-016
 20
8.990561519044
 30
5.415699730625
 70
80
  0
VERTEX
  8
0
 10
-7.0E-016
 20
8.990212453371
 30
5.615699426007
 70
80
  0
VERTEX
  8
0
 10
2.8
 20
8.99125965039
 30
5.01570033986
 70
80
  0
VERTEX
  8
0
 10
2.912000083923
 20
8.990910584717
 30
5.215700035242
 70
80
  0
VERTEX
  8
0
 10
3.023999977112
 20
8.990561519044
 30
5.415699730625
 70
80
  0
VERTEX
  8
0
 10
3.136000061035
 20
8.990212453371
 30
5.615699426007
 70
80
  0
VERTEX
  8
0
 10
5.0
 20
8.995099372795
 30
2.81570369065
 70
80
  0
VERTEX
  8
0
 10
5.2
 20
8.994903895872
 30
2.927703603988
 70
80
  0
VERTEX
  8
0
 10
5.4
 20
8.994708419281
 30
3.039703326591
 70
80
  0
VERTEX
  8
0
 10
5.6
 20
8.994512942358
 30
3.151703239928
 70
80
  0
VERTEX
  8
0
 10
5.0
 20
8.99998629222
 30
1.570795529309E-002
 70
80
  0
VERTEX
  8
0
 10
5.2
 20
8.99998629222
 30
1.570795529309E-002
 70
80
  0
VERTEX
  8
0
 10
5.4
 20
8.99998629222
 30
1.570795529309E-002
 70
80
  0
VERTEX
  8
0
 10
5.6
 20
8.99998629222
 30
1.570795529309E-002
 70
80
  0
SEQEND
  0
POLYLINE
  8
0
 62
253
 66
1
 70
20
 75
6
 71
4
 72
4
 73
2
 74
2
  0
VERTEX
  8
0
 10
-5.0
 20
8.99998629222
 30
1.570795529308E-002
 70
72
  0
VERTEX
  8
0
 10
-5.6
 20
8.99998629222
 30
1.570795529308E-002
 70
72
  0
VERTEX
  8
0
 10
-3.0E-016
 20
8.99125965039
 30
5.01570033986
 70
72
  0
VERTEX
  8
0
 10
-3.0E-016
 20
8.990212453371
 30
5.615699426007
 70
72
  0
VERTEX
  8
0
 10
-5.0
 20
8.99998629222
 30
1.570795529308E-002
 70
80
  0
VERTEX
  8
0
 10
-5.2
 20
8.99998629222
 30
1.570795529308E-002
 70
80
  0
VERTEX
  8
0
 10
-5.4
 20
8.99998629222
 30
1.570795529308E-002
 70
80
  0
VERTEX
  8
0
 10
-5.6
 20
8.99998629222
 30
1.570795529308E-002
 70
80
  0
VERTEX
  8
0
 10
-5.0
 20
8.995099372795
 30
2.81570369065
 70
80
  0
VERTEX
  8
0
 10
-5.2
 20
8.994903895872
 30
2.927703603988
 70
80
  0
VERTEX
  8
0
 10
-5.4
 20
8.994708419281
 30
3.039703326591
 70
80
  0
VERTEX
  8
0
 10
-5.6
 20
8.994512942358
 30
3.151703239928
 70
80
  0
VERTEX
  8
0
 10
-2.8
 20
8.99125965039
 30
5.01570033986
 70
80
  0
VERTEX
  8
0
 10
-2.912000083923
 20
8.990910584717
 30
5.215700035242
 70
80
  0
VERTEX
  8
0
 10
-3.023999977112
 20
8.990561519044
 30
5.415699730625
 70
80
  0
VERTEX
  8
0
 10
-3.136000061035
 20
8.990212453371
 30
5.615699426007
 70
80
  0
VERTEX
  8
0
 10
-3.0E-016
 20
8.99125965039
 30
5.01570033986
 70
80
  0
VERTEX
  8
0
 10
-3.0E-016
 20
8.990910584717
 30
5.215700035242
 70
80
  0
VERTEX
  8
0
 10
-3.0E-016
 20
8.990561519044
 30
5.415699730625
 70
80
  0
VERTEX
  8
0
 10
-3.0E-016
 20
8.990212453371
 30
5.615699426007
 70
80
  0
SEQEND
  0
POLYLINE
  8
0
 62
253
 66
1
 70
20
 75
6
 71
4
 72
4
 73
2
 74
2
  0
VERTEX
  8
0
 10
10.8
 20
8.99998629222
 30
1.570795529308E-002
 70
72
  0
VERTEX
  8
0
 10
11.2
 20
8.99998629222
 30
1.570795529308E-002
 70
72
  0
VERTEX
  8
0
 10
13.2
 20
8.99998629222
 30
1.570795529308E-002
 70
72
  0
VERTEX
  8
0
 10
12.8
 20
8.99998629222
 30
1.570795529308E-002
 70
72
  0
VERTEX
  8
0
 10
10.8
 20
8.99998629222
 30
1.570795529308E-002
 70
80
  0
VERTEX
  8
0
 10
11.2
 20
9.299985835294
 30
1.623155380285E-002
 70
80
  0
VERTEX
  8
0
 10
11.6
 20
9.299985835294
 30
1.623155380285E-002
 70
80
  0
VERTEX
  8
0
 10
11.2
 20
8.99998629222
 30
1.570795529308E-002
 70
80
  0
VERTEX
  8
0
 10
10.8
 20
8.998240963854
 30
1.015706432206
 70
80
  0
VERTEX
  8
0
 10
11.2
 20
9.298240506928
 30
1.016230030716
 70
80
  0
VERTEX
  8
0
 10
11.6
 20
9.298938638274
 30
0.616230639951
 70
80
  0
VERTEX
  8
0
 10
11.2
 20
8.9989390952
 30
0.615707041441
 70
80
  0
VERTEX
  8
0
 10
13.2
 20
8.998240963854
 30
1.015706432206
 70
80
  0
VERTEX
  8
0
 10
14.1
 20
9.373240392696
 30
1.016360930344
 70
80
  0
VERTEX
  8
0
 10
13.8
 20
9.448938409811
 30
0.616492439206
 70
80
  0
VERTEX
  8
0
 10
12.8
 20
8.9989390952
 30
0.615707041441
 70
80
  0
VERTEX
  8
0
 10
13.2
 20
8.99998629222
 30
1.570795529308E-002
 70
80
  0
VERTEX
  8
0
 10
14.1
 20
9.374985721062
 30
1.636245343030E-002
 70
80
  0
VERTEX
  8
0
 10
13.8
 20
9.449985606831
 30
1.649335305774E-002
 70
80
  0
VERTEX
  8
0
 10
12.8
 20
8.99998629222
 30
1.570795529308E-002
 70
80
  0
SEQEND
  0
POLYLINE
  8
0
 62
253
 66
1
 70
20
 75
6
 71
4
 72
4
 73
2
 74
2
  0
VERTEX
  8
0
 10
13.2
 20
8.99998629222
 30
1.570795529308E-002
 70
72
  0
VERTEX
  8
0
 10
12.8
 20
8.99998629222
 30
1.570795529308E-002
 70
72
  0
VERTEX
  8
0
 10
10.8
 20
8.99998629222
 30
1.570795529308E-002
 70
72
  0
VERTEX
  8
0
 10
11.2
 20
8.99998629222
 30
1.570795529308E-002
 70
72
  0
VERTEX
  8
0
 10
13.2
 20
8.99998629222
 30
1.570795529308E-002
 70
80
  0
VERTEX
  8
0
 10
14.1
 20
9.374985721062
 30
1.636245343030E-002
 70
80
  0
VERTEX
  8
0
 10
13.8
 20
9.449985606831
 30
1.649335305774E-002
 70
80
  0
VERTEX
  8
0
 10
12.8
 20
8.99998629222
 30
1.570795529308E-002
 70
80
  0
VERTEX
  8
0
 10
13.2
 20
9.001731620585
 30
-0.98429052162
 70
80
  0
VERTEX
  8
0
 10
14.1
 20
9.376731049428
 30
-0.983636023483
 70
80
  0
VERTEX
  8
0
 10
13.8
 20
9.45103280385
 30
-0.58350573309
 70
80
  0
VERTEX
  8
0
 10
12.8
 20
9.001033489239
 30
-0.584291130855
 70
80
  0
VERTEX
  8
0
 10
10.8
 20
9.001731620585
 30
-0.98429052162
 70
80
  0
VERTEX
  8
0
 10
11.2
 20
9.301731163659
 30
-0.98376692311
 70
80
  0
VERTEX
  8
0
 10
11.6
 20
9.301033032313
 30
-0.583767532345
 70
80
  0
VERTEX
  8
0
 10
11.2
 20
9.001033489239
 30
-0.584291130855
 70
80
  0
VERTEX
  8
0
 10
10.8
 20
8.99998629222
 30
1.570795529308E-002
 70
80
  0
VERTEX
  8
0
 10
11.2
 20
9.299985835294
 30
1.623155380285E-002
 70
80
  0
VERTEX
  8
0
 10
11.6
 20
9.299985835294
 30
1.623155380285E-002
 70
80
  0
VERTEX
  8
0
 10
11.2
 20
8.99998629222
 30
1.570795529308E-002
 70
80
  0
SEQEND
  0
POLYLINE
  8
0
 62
253
 66
1
 70
20
 75
6
 71
4
 72
4
 73
2
 74
2
  0
VERTEX
  8
0
 10
6.8
 20
5.099992232258
 30
8.901174666081E-003
 70
72
  0
VERTEX
  8
0
 10
10.8
 20
8.99998629222
 30
1.570795529308E-002
 70
72
  0
VERTEX
  8
0
 10
6.8
 20
1.799997258444
 30
3.141591058617E-003
 70
72
  0
VERTEX
  8
0
 10
13.2
 20
8.99998629222
 30
1.570795529308E-002
 70
72
  0
VERTEX
  8
0
 10
6.8
 20
5.099992232258
 30
8.901174666081E-003
 70
80
  0
VERTEX
  8
0
 10
10.4
 20
5.099992232258
 30
8.901174666081E-003
 70
80
  0
VERTEX
  8
0
 10
9.2
 20
7.799988119924
 30
1.361356125401E-002
 70
80
  0
VERTEX
  8
0
 10
10.8
 20
8.99998629222
 30
1.570795529308E-002
 70
80
  0
VERTEX
  8
0
 10
6.8
 20
5.095384565438
 30
2.64889711557
 70
80
  0
VERTEX
  8
0
 10
10.4
 20
5.095384565438
 30
2.64889711557
 70
80
  0
VERTEX
  8
0
 10
9.2
 20
7.798242791558
 30
1.013612038167
 70
80
  0
VERTEX
  8
0
 10
10.8
 20
8.998240963854
 30
1.015706432206
 70
80
  0
VERTEX
  8
0
 10
6.8
 20
1.795389591625
 30
2.643137531963
 70
80
  0
VERTEX
  8
0
 10
12.4
 20
2.695388220846
 30
2.644708327492
 70
80
  0
VERTEX
  8
0
 10
9.6
 20
7.498243248484
 30
1.013088439658
 70
80
  0
VERTEX
  8
0
 10
13.2
 20
8.998240963854
 30
1.015706432206
 70
80
  0
VERTEX
  8
0
 10
6.8
 20
1.799997258444
 30
3.141591058617E-003
 70
80
  0
VERTEX
  8
0
 10
12.4
 20
2.699995887666
 30
4.712386587925E-003
 70
80
  0
VERTEX
  8
0
 10
9.6
 20
7.49998857685
 30
1.308996274424E-002
 70
80
  0
VERTEX
  8
0
 10
13.2
 20
8.99998629222
 30
1.570795529308E-002
 70
80
  0
SEQEND
  0
POLYLINE
  8
0
 62
253
 66
1
 70
20
 75
6
 71
4
 72
4
 73
2
 74
2
  0
VERTEX
  8
0
 10
6.8
 20
1.799997258444
 30
3.141591058617E-003
 70
72
  0
VERTEX
  8
0
 10
13.2
 20
8.99998629222
 30
1.570795529308E-002
 70
72
  0
VERTEX
  8
0
 10
6.8
 20
5.099992232258
 30
8.901174666081E-003
 70
72
  0
VERTEX
  8
0
 10
10.8
 20
8.99998629222
 30
1.570795529308E-002
 70
72
  0
VERTEX
  8
0
 10
6.8
 20
1.799997258444
 30
3.141591058617E-003
 70
80
  0
VERTEX
  8
0
 10
12.4
 20
2.699995887666
 30
4.712386587925E-003
 70
80
  0
VERTEX
  8
0
 10
9.6
 20
7.49998857685
 30
1.308996274424E-002
 70
80
  0
VERTEX
  8
0
 10
13.2
 20
8.99998629222
 30
1.570795529308E-002
 70
80
  0
VERTEX
  8
0
 10
6.8
 20
1.804604925263
 30
-2.636854349846
 70
80
  0
VERTEX
  8
0
 10
12.4
 20
2.704603554485
 30
-2.635283554316
 70
80
  0
VERTEX
  8
0
 10
9.6
 20
7.501733905216
 30
-0.986908514169
 70
80
  0
VERTEX
  8
0
 10
13.2
 20
9.001731620585
 30
-0.98429052162
 70
80
  0
VERTEX
  8
0
 10
6.8
 20
5.104599899077
 30
-2.631094766238
 70
80
  0
VERTEX
  8
0
 10
10.4
 20
5.104599899077
 30
-2.631094766238
 70
80
  0
VERTEX
  8
0
 10
9.2
 20
7.80173344829
 30
-0.986384915659
 70
80
  0
VERTEX
  8
0
 10
10.8
 20
9.001731620585
 30
-0.98429052162
 70
80
  0
VERTEX
  8
0
 10
6.8
 20
5.099992232258
 30
8.901174666081E-003
 70
80
  0
VERTEX
  8
0
 10
10.4
 20
5.099992232258
 30
8.901174666081E-003
 70
80
  0
VERTEX
  8
0
 10
9.2
 20
7.799988119924
 30
1.361356125401E-002
 70
80
  0
VERTEX
  8
0
 10
10.8
 20
8.99998629222
 30
1.570795529308E-002
 70
80
  0
SEQEND
  0
POLYLINE
  8
0
 62
253
 66
1
 70
20
 75
6
 71
4
 72
4
 73
2
 74
2
  0
VERTEX
  8
0
 10
-10.8
 20
6.599989947628
 30
1.151916721493E-002
 70
72
  0
VERTEX
  8
0
 10
-8.0
 20
2.99999543074
 30
5.235985097695E-003
 70
72
  0
VERTEX
  8
0
 10
-12.0
 20
6.599989947628
 30
1.151916721493E-002
 70
72
  0
VERTEX
  8
0
 10
-7.6
 20
1.799997258444
 30
3.141591058617E-003
 70
72
  0
VERTEX
  8
0
 10
-10.8
 20
6.599989947628
 30
1.151916721493E-002
 70
80
  0
VERTEX
  8
0
 10
-10.8
 20
5.699991318406
 30
9.948371685620E-003
 70
80
  0
VERTEX
  8
0
 10
-10.0
 20
3.899994059962
 30
6.806780627003E-003
 70
80
  0
VERTEX
  8
0
 10
-8.0
 20
2.99999543074
 30
5.235985097695E-003
 70
80
  0
VERTEX
  8
0
 10
-10.8
 20
6.597895553589
 30
1.211517339511
 70
80
  0
VERTEX
  8
0
 10
-10.8
 20
5.697896924367
 30
1.209946543982
 70
80
  0
VERTEX
  8
0
 10
-10.0
 20
3.897899665923
 30
1.206804952923
 70
80
  0
VERTEX
  8
0
 10
-8.0
 20
2.997901036701
 30
1.205234157394
 70
80
  0
VERTEX
  8
0
 10
-12.0
 20
6.597895553589
 30
1.211517339511
 70
80
  0
VERTEX
  8
0
 10
-12.0
 20
4.797898295145
 30
1.208375748452
 70
80
  0
VERTEX
  8
0
 10
-10.6
 20
3.147900808238
 30
1.205495956649
 70
80
  0
VERTEX
  8
0
 10
-7.6
 20
1.797902864405
 30
1.203139763355
 70
80
  0
VERTEX
  8
0
 10
-12.0
 20
6.599989947628
 30
1.151916721493E-002
 70
80
  0
VERTEX
  8
0
 10
-12.0
 20
4.799992689184
 30
8.377576156312E-003
 70
80
  0
VERTEX
  8
0
 10
-10.6
 20
3.149995202277
 30
5.497784352579E-003
 70
80
  0
VERTEX
  8
0
 10
-7.6
 20
1.799997258444
 30
3.141591058617E-003
 70
80
  0
SEQEND
  0
POLYLINE
  8
0
 62
253
 66
1
 70
20
 75
6
 71
4
 72
4
 73
2
 74
2
  0
VERTEX
  8
0
 10
-12.0
 20
6.599989947628
 30
1.151916721493E-002
 70
72
  0
VERTEX
  8
0
 10
-7.6
 20
1.799997258444
 30
3.141591058617E-003
 70
72
  0
VERTEX
  8
0
 10
-10.8
 20
6.599989947628
 30
1.151916721493E-002
 70
72
  0
VERTEX
  8
0
 10
-8.0
 20
2.99999543074
 30
5.235985097695E-003
 70
72
  0
VERTEX
  8
0
 10
-12.0
 20
6.599989947628
 30
1.151916721493E-002
 70
80
  0
VERTEX
  8
0
 10
-12.0
 20
4.799992689184
 30
8.377576156312E-003
 70
80
  0
VERTEX
  8
0
 10
-10.6
 20
3.149995202277
 30
5.497784352579E-003
 70
80
  0
VERTEX
  8
0
 10
-7.6
 20
1.799997258444
 30
3.141591058617E-003
 70
80
  0
VERTEX
  8
0
 10
-12.0
 20
6.602084341667
 30
-1.188479005081
 70
80
  0
VERTEX
  8
0
 10
-12.0
 20
4.802087083223
 30
-1.19162059614
 70
80
  0
VERTEX
  8
0
 10
-10.6
 20
3.152089596316
 30
-1.194500387943
 70
80
  0
VERTEX
  8
0
 10
-7.6
 20
1.802091652483
 30
-1.196856581237
 70
80
  0
VERTEX
  8
0
 10
-10.8
 20
6.602084341667
 30
-1.188479005081
 70
80
  0
VERTEX
  8
0
 10
-10.8
 20
5.702085712445
 30
-1.19004980061
 70
80
  0
VERTEX
  8
0
 10
-10.0
 20
3.902088454001
 30
-1.193191391669
 70
80
  0
VERTEX
  8
0
 10
-8.0
 20
3.002089824779
 30
-1.194762187198
 70
80
  0
VERTEX
  8
0
 10
-10.8
 20
6.599989947628
 30
1.151916721493E-002
 70
80
  0
VERTEX
  8
0
 10
-10.8
 20
5.699991318406
 30
9.948371685620E-003
 70
80
  0
VERTEX
  8
0
 10
-10.0
 20
3.899994059962
 30
6.806780627003E-003
 70
80
  0
VERTEX
  8
0
 10
-8.0
 20
2.99999543074
 30
5.235985097695E-003
 70
80
  0
SEQEND
  0
POLYLINE
  8
0
 62
253
 66
1
 70
20
 75
6
 71
4
 72
4
 73
2
 74
2
  0
VERTEX
  8
0
 10
-6.4
 20
7.49998857685
 30
1.308996274424E-002
 70
72
  0
VERTEX
  8
0
 10
-10.8
 20
6.599989947628
 30
1.151916721493E-002
 70
72
  0
VERTEX
  8
0
 10
-6.0
 20
8.399987206072
 30
1.466075827355E-002
 70
72
  0
VERTEX
  8
0
 10
-12.0
 20
6.599989947628
 30
1.151916721493E-002
 70
72
  0
VERTEX
  8
0
 10
-6.4
 20
7.49998857685
 30
1.308996274424E-002
 70
80
  0
VERTEX
  8
0
 10
-9.2
 20
7.49998857685
 30
1.308996274424E-002
 70
80
  0
VERTEX
  8
0
 10
-10.8
 20
7.49998857685
 30
1.308996274424E-002
 70
80
  0
VERTEX
  8
0
 10
-10.8
 20
6.599989947628
 30
1.151916721493E-002
 70
80
  0
VERTEX
  8
0
 10
-6.4
 20
7.497894182811
 30
1.21308813504
 70
80
  0
VERTEX
  8
0
 10
-9.2
 20
7.497894182811
 30
1.21308813504
 70
80
  0
VERTEX
  8
0
 10
-10.8
 20
7.497894182811
 30
1.21308813504
 70
80
  0
VERTEX
  8
0
 10
-10.8
 20
6.597895553589
 30
1.211517339511
 70
80
  0
VERTEX
  8
0
 10
-6.0
 20
8.397892812033
 30
1.214658930569
 70
80
  0
VERTEX
  8
0
 10
-10.0
 20
8.397892812033
 30
1.214658930569
 70
80
  0
VERTEX
  8
0
 10
-12.0
 20
8.397892812033
 30
1.214658930569
 70
80
  0
VERTEX
  8
0
 10
-12.0
 20
6.597895553589
 30
1.211517339511
 70
80
  0
VERTEX
  8
0
 10
-6.0
 20
8.399987206072
 30
1.466075827355E-002
 70
80
  0
VERTEX
  8
0
 10
-10.0
 20
8.399987206072
 30
1.466075827355E-002
 70
80
  0
VERTEX
  8
0
 10
-12.0
 20
8.399987206072
 30
1.466075827355E-002
 70
80
  0
VERTEX
  8
0
 10
-12.0
 20
6.599989947628
 30
1.151916721493E-002
 70
80
  0
SEQEND
  0
POLYLINE
  8
0
 62
253
 66
1
 70
20
 75
6
 71
4
 72
4
 73
2
 74
2
  0
VERTEX
  8
0
 10
-6.0
 20
8.399987206072
 30
1.466075827355E-002
 70
72
  0
VERTEX
  8
0
 10
-12.0
 20
6.599989947628
 30
1.151916721493E-002
 70
72
  0
VERTEX
  8
0
 10
-6.4
 20
7.49998857685
 30
1.308996274424E-002
 70
72
  0
VERTEX
  8
0
 10
-10.8
 20
6.599989947628
 30
1.151916721493E-002
 70
72
  0
VERTEX
  8
0
 10
-6.0
 20
8.399987206072
 30
1.466075827355E-002
 70
80
  0
VERTEX
  8
0
 10
-10.0
 20
8.399987206072
 30
1.466075827355E-002
 70
80
  0
VERTEX
  8
0
 10
-12.0
 20
8.399987206072
 30
1.466075827355E-002
 70
80
  0
VERTEX
  8
0
 10
-12.0
 20
6.599989947628
 30
1.151916721493E-002
 70
80
  0
VERTEX
  8
0
 10
-6.0
 20
8.402081600111
 30
-1.185337414022
 70
80
  0
VERTEX
  8
0
 10
-10.0
 20
8.402081600111
 30
-1.185337414022
 70
80
  0
VERTEX
  8
0
 10
-12.0
 20
8.402081600111
 30
-1.185337414022
 70
80
  0
VERTEX
  8
0
 10
-12.0
 20
6.602084341667
 30
-1.188479005081
 70
80
  0
VERTEX
  8
0
 10
-6.4
 20
7.502082970889
 30
-1.186908209552
 70
80
  0
VERTEX
  8
0
 10
-9.2
 20
7.502082970889
 30
-1.186908209552
 70
80
  0
VERTEX
  8
0
 10
-10.8
 20
7.502082970889
 30
-1.186908209552
 70
80
  0
VERTEX
  8
0
 10
-10.8
 20
6.602084341667
 30
-1.188479005081
 70
80
  0
VERTEX
  8
0
 10
-6.4
 20
7.49998857685
 30
1.308996274424E-002
 70
80
  0
VERTEX
  8
0
 10
-9.2
 20
7.49998857685
 30
1.308996274424E-002
 70
80
  0
VERTEX
  8
0
 10
-10.8
 20
7.49998857685
 30
1.308996274424E-002
 70
80
  0
VERTEX
  8
0
 10
-10.8
 20
6.599989947628
 30
1.151916721493E-002
 70
80
  0
SEQEND
  0
POLYLINE
  8
0
 62
253
 66
1
 70
20
 75
6
 71
4
 72
4
 73
2
 74
2
  0
VERTEX
  8
0
 10
5.6
 20
8.99998629222
 30
1.570795529308E-002
 70
72
  0
VERTEX
  8
0
 10
6.0
 20
8.99998629222
 30
1.570795529308E-002
 70
72
  0
VERTEX
  8
0
 10
0.0
 20
8.990212453371
 30
5.615699426007
 70
72
  0
VERTEX
  8
0
 10
0.0
 20
8.989514322024
 30
6.015698816773
 70
72
  0
VERTEX
  8
0
 10
5.6
 20
8.99998629222
 30
1.570795529308E-002
 70
80
  0
VERTEX
  8
0
 10
5.35
 20
9.524985492599
 30
1.662425268518E-002
 70
80
  0
VERTEX
  8
0
 10
5.75
 20
9.524985492599
 30
1.662425268518E-002
 70
80
  0
VERTEX
  8
0
 10
6.0
 20
8.99998629222
 30
1.570795529308E-002
 70
80
  0
VERTEX
  8
0
 10
5.6
 20
8.994512942358
 30
3.151703239928
 70
80
  0
VERTEX
  8
0
 10
5.35
 20
9.519756488975
 30
3.012619597965
 70
80
  0
VERTEX
  8
0
 10
5.75
 20
9.519365535128
 30
3.23661942464
 70
80
  0
VERTEX
  8
0
 10
6.0
 20
8.994121989176
 30
3.375702685134
 70
80
  0
VERTEX
  8
0
 10
3.136000061035
 20
8.990212453371
 30
5.615699426007
 70
80
  0
VERTEX
  8
0
 10
2.995999908447
 20
9.515647985842
 30
5.366616104171
 70
80
  0
VERTEX
  8
0
 10
3.220000076294
 20
9.514949854495
 30
5.766615494937
 70
80
  0
VERTEX
  8
0
 10
3.359999847412
 20
8.989514322024
 30
6.015698816773
 70
80
  0
VERTEX
  8
0
 10
0.0
 20
8.990212453371
 30
5.615699426007
 70
80
  0
VERTEX
  8
0
 10
0.0
 20
9.515647985842
 30
5.366616104171
 70
80
  0
VERTEX
  8
0
 10
0.0
 20
9.514949854495
 30
5.766615494937
 70
80
  0
VERTEX
  8
0
 10
0.0
 20
8.989514322024
 30
6.015698816773
 70
80
  0
SEQEND
  0
POLYLINE
  8
0
 62
253
 66
1
 70
20
 75
6
 71
4
 72
4
 73
2
 74
2
  0
VERTEX
  8
0
 10
0.0
 20
9.009760131069
 30
-5.584283515421
 70
72
  0
VERTEX
  8
0
 10
0.0
 20
9.010458262415
 30
-5.984282906187
 70
72
  0
VERTEX
  8
0
 10
5.6
 20
8.99998629222
 30
1.570795529308E-002
 70
72
  0
VERTEX
  8
0
 10
6.0
 20
8.99998629222
 30
1.570795529308E-002
 70
72
  0
VERTEX
  8
0
 10
0.0
 20
9.009760131069
 30
-5.584283515421
 70
80
  0
VERTEX
  8
0
 10
0.0
 20
9.534322999357
 30
-5.333367598801
 70
80
  0
VERTEX
  8
0
 10
0.0
 20
9.535021130703
 30
-5.733366989566
 70
80
  0
VERTEX
  8
0
 10
0.0
 20
9.010458262415
 30
-5.984282906187
 70
80
  0
VERTEX
  8
0
 10
3.136000061035
 20
9.009760131069
 30
-5.584283515421
 70
80
  0
VERTEX
  8
0
 10
2.995999908447
 20
9.534322999357
 30
-5.333367598801
 70
80
  0
VERTEX
  8
0
 10
3.220000076294
 20
9.535021130703
 30
-5.733366989566
 70
80
  0
VERTEX
  8
0
 10
3.359999847412
 20
9.010458262415
 30
-5.984282906187
 70
80
  0
VERTEX
  8
0
 10
5.6
 20
9.005459642082
 30
-3.120287329342
 70
80
  0
VERTEX
  8
0
 10
5.35
 20
9.530214496224
 30
-2.979371092594
 70
80
  0
VERTEX
  8
0
 10
5.75
 20
9.53060545007
 30
-3.203370919269
 70
80
  0
VERTEX
  8
0
 10
6.0
 20
9.005850595263
 30
-3.344286774548
 70
80
  0
VERTEX
  8
0
 10
5.6
 20
8.99998629222
 30
1.570795529308E-002
 70
80
  0
VERTEX
  8
0
 10
5.35
 20
9.524985492599
 30
1.662425268518E-002
 70
80
  0
VERTEX
  8
0
 10
5.75
 20
9.524985492599
 30
1.662425268518E-002
 70
80
  0
VERTEX
  8
0
 10
6.0
 20
8.99998629222
 30
1.570795529308E-002
 70
80
  0
SEQEND
  0
POLYLINE
  8
0
 62
253
 66
1
 70
20
 75
6
 71
4
 72
4
 73
2
 74
2
  0
VERTEX
  8
0
 10
0.0
 20
8.990212453371
 30
5.615699426007
 70
72
  0
VERTEX
  8
0
 10
0.0
 20
8.989514322024
 30
6.015698816773
 70
72
  0
VERTEX
  8
0
 10
-5.6
 20
8.99998629222
 30
1.570795529308E-002
 70
72
  0
VERTEX
  8
0
 10
-6.0
 20
8.99998629222
 30
1.570795529308E-002
 70
72
  0
VERTEX
  8
0
 10
0.0
 20
8.990212453371
 30
5.615699426007
 70
80
  0
VERTEX
  8
0
 10
0.0
 20
9.515647985842
 30
5.366616104171
 70
80
  0
VERTEX
  8
0
 10
0.0
 20
9.514949854495
 30
5.766615494937
 70
80
  0
VERTEX
  8
0
 10
0.0
 20
8.989514322024
 30
6.015698816773
 70
80
  0
VERTEX
  8
0
 10
-3.136000061035
 20
8.990212453371
 30
5.615699426007
 70
80
  0
VERTEX
  8
0
 10
-2.995999908447
 20
9.515647985842
 30
5.366616104171
 70
80
  0
VERTEX
  8
0
 10
-3.220000076294
 20
9.514949854495
 30
5.766615494937
 70
80
  0
VERTEX
  8
0
 10
-3.359999847412
 20
8.989514322024
 30
6.015698816773
 70
80
  0
VERTEX
  8
0
 10
-5.6
 20
8.994512942358
 30
3.151703239928
 70
80
  0
VERTEX
  8
0
 10
-5.35
 20
9.519756488975
 30
3.012619597965
 70
80
  0
VERTEX
  8
0
 10
-5.75
 20
9.519365535128
 30
3.23661942464
 70
80
  0
VERTEX
  8
0
 10
-6.0
 20
8.994121989176
 30
3.375702685134
 70
80
  0
VERTEX
  8
0
 10
-5.6
 20
8.99998629222
 30
1.570795529308E-002
 70
80
  0
VERTEX
  8
0
 10
-5.35
 20
9.524985492599
 30
1.662425268518E-002
 70
80
  0
VERTEX
  8
0
 10
-5.75
 20
9.524985492599
 30
1.662425268518E-002
 70
80
  0
VERTEX
  8
0
 10
-6.0
 20
8.99998629222
 30
1.570795529308E-002
 70
80
  0
SEQEND
  0
POLYLINE
  8
0
 62
253
 66
1
 70
20
 75
6
 71
4
 72
4
 73
2
 74
2
  0
VERTEX
  8
0
 10
-5.6
 20
8.99998629222
 30
1.570795529308E-002
 70
72
  0
VERTEX
  8
0
 10
-6.0
 20
8.99998629222
 30
1.570795529308E-002
 70
72
  0
VERTEX
  8
0
 10
0.0
 20
9.009760131069
 30
-5.584283515421
 70
72
  0
VERTEX
  8
0
 10
0.0
 20
9.010458262415
 30
-5.984282906187
 70
72
  0
VERTEX
  8
0
 10
-5.6
 20
8.99998629222
 30
1.570795529308E-002
 70
80
  0
VERTEX
  8
0
 10
-5.35
 20
9.524985492599
 30
1.662425268518E-002
 70
80
  0
VERTEX
  8
0
 10
-5.75
 20
9.524985492599
 30
1.662425268518E-002
 70
80
  0
VERTEX
  8
0
 10
-6.0
 20
8.99998629222
 30
1.570795529308E-002
 70
80
  0
VERTEX
  8
0
 10
-5.6
 20
9.005459642082
 30
-3.120287329342
 70
80
  0
VERTEX
  8
0
 10
-5.35
 20
9.530214496224
 30
-2.979371092594
 70
80
  0
VERTEX
  8
0
 10
-5.75
 20
9.53060545007
 30
-3.203370919269
 70
80
  0
VERTEX
  8
0
 10
-6.0
 20
9.005850595263
 30
-3.344286774548
 70
80
  0
VERTEX
  8
0
 10
-3.136000061035
 20
9.009760131069
 30
-5.584283515421
 70
80
  0
VERTEX
  8
0
 10
-2.995999908447
 20
9.534322999357
 30
-5.333367598801
 70
80
  0
VERTEX
  8
0
 10
-3.220000076294
 20
9.535021130703
 30
-5.733366989566
 70
80
  0
VERTEX
  8
0
 10
-3.359999847412
 20
9.010458262415
 30
-5.984282906187
 70
80
  0
VERTEX
  8
0
 10
0.0
 20
9.009760131069
 30
-5.584283515421
 70
80
  0
VERTEX
  8
0
 10
0.0
 20
9.534322999357
 30
-5.333367598801
 70
80
  0
VERTEX
  8
0
 10
0.0
 20
9.535021130703
 30
-5.733366989566
 70
80
  0
VERTEX
  8
0
 10
0.0
 20
9.010458262415
 30
-5.984282906187
 70
80
  0
SEQEND
  0
POLYLINE
  8
0
 62
253
 66
1
 70
20
 75
6
 71
4
 72
4
 73
2
 74
2
  0
VERTEX
  8
0
 10
6.0
 20
8.99998629222
 30
1.570795529308E-002
 70
72
  0
VERTEX
  8
0
 10
8.0
 20
2.99999543074
 30
5.235985097695E-003
 70
72
  0
VERTEX
  8
0
 10
0.0
 20
8.989514322024
 30
6.015698816773
 70
72
  0
VERTEX
  8
0
 10
0.0
 20
2.986032803813
 30
8.005223800404
 70
72
  0
VERTEX
  8
0
 10
6.0
 20
8.99998629222
 30
1.570795529308E-002
 70
80
  0
VERTEX
  8
0
 10
7.
 20
6.899989490702
 30
1.204276572470E-002
 70
80
  0
VERTEX
  8
0
 10
8.0
 20
4.799992689184
 30
8.377576156312E-003
 70
80
  0
VERTEX
  8
0
 10
8.0
 20
2.99999543074
 30
5.235985097695E-003
 70
80
  0
VERTEX
  8
0
 10
6.0
 20
8.994121989176
 30
3.375702685134
 70
80
  0
VERTEX
  8
0
 10
7.
 20
6.893147803374
 30
3.932036871519
 70
80
  0
VERTEX
  8
0
 10
8.0
 20
4.792173618238
 30
4.488370676434
 70
80
  0
VERTEX
  8
0
 10
8.0
 20
2.992176359794
 30
4.485229085375
 70
80
  0
VERTEX
  8
0
 10
3.359999847412
 20
8.989514322024
 30
6.015698816773
 70
80
  0
VERTEX
  8
0
 10
3.920000076294
 20
6.88777219214
 30
7.012032104118
 70
80
  0
VERTEX
  8
0
 10
4.479999923706
 20
4.786030062257
 30
8.008365391463
 70
80
  0
VERTEX
  8
0
 10
4.479999923706
 20
2.986032803813
 30
8.005223800404
 70
80
  0
VERTEX
  8
0
 10
0.0
 20
8.989514322024
 30
6.015698816773
 70
80
  0
VERTEX
  8
0
 10
0.0
 20
6.88777219214
 30
7.012032104118
 70
80
  0
VERTEX
  8
0
 10
0.0
 20
4.786030062257
 30
8.008365391463
 70
80
  0
VERTEX
  8
0
 10
0.0
 20
2.986032803813
 30
8.005223800404
 70
80
  0
SEQEND
  0
POLYLINE
  8
0
 62
253
 66
1
 70
20
 75
6
 71
4
 72
4
 73
2
 74
2
  0
VERTEX
  8
0
 10
0.0
 20
9.010458262415
 30
-5.984282906187
 70
72
  0
VERTEX
  8
0
 10
0.0
 20
3.013958057667
 30
-7.994751830209
 70
72
  0
VERTEX
  8
0
 10
6.0
 20
8.99998629222
 30
1.570795529308E-002
 70
72
  0
VERTEX
  8
0
 10
8.0
 20
2.99999543074
 30
5.235985097695E-003
 70
72
  0
VERTEX
  8
0
 10
0.0
 20
9.010458262415
 30
-5.984282906187
 70
80
  0
VERTEX
  8
0
 10
0.0
 20
6.912206789263
 30
-6.987946572668
 70
80
  0
VERTEX
  8
0
 10
0.0
 20
4.813955316111
 30
-7.99161023915
 70
80
  0
VERTEX
  8
0
 10
0.0
 20
3.013958057667
 30
-7.994751830209
 70
80
  0
VERTEX
  8
0
 10
3.359999847412
 20
9.010458262415
 30
-5.984282906187
 70
80
  0
VERTEX
  8
0
 10
3.920000076294
 20
6.912206789263
 30
-6.987946572668
 70
80
  0
VERTEX
  8
0
 10
4.479999923706
 20
4.813955316111
 30
-7.99161023915
 70
80
  0
VERTEX
  8
0
 10
4.479999923706
 20
3.013958057667
 30
-7.994751830209
 70
80
  0
VERTEX
  8
0
 10
6.0
 20
9.005850595263
 30
-3.344286774548
 70
80
  0
VERTEX
  8
0
 10
7.
 20
6.906831178029
 30
-3.907951340069
 70
80
  0
VERTEX
  8
0
 10
8.0
 20
4.80781176013
 30
-4.471615524121
 70
80
  0
VERTEX
  8
0
 10
8.0
 20
3.007814501686
 30
-4.47475711518
 70
80
  0
VERTEX
  8
0
 10
6.0
 20
8.99998629222
 30
1.570795529308E-002
 70
80
  0
VERTEX
  8
0
 10
7.
 20
6.899989490702
 30
1.204276572470E-002
 70
80
  0
VERTEX
  8
0
 10
8.0
 20
4.799992689184
 30
8.377576156312E-003
 70
80
  0
VERTEX
  8
0
 10
8.0
 20
2.99999543074
 30
5.235985097695E-003
 70
80
  0
SEQEND
  0
POLYLINE
  8
0
 62
253
 66
1
 70
20
 75
6
 71
4
 72
4
 73
2
 74
2
  0
VERTEX
  8
0
 10
0.0
 20
8.989514322024
 30
6.015698816773
 70
72
  0
VERTEX
  8
0
 10
0.0
 20
2.986032803813
 30
8.005223800404
 70
72
  0
VERTEX
  8
0
 10
-6.0
 20
8.99998629222
 30
1.570795529308E-002
 70
72
  0
VERTEX
  8
0
 10
-8.0
 20
2.99999543074
 30
5.235985097695E-003
 70
72
  0
VERTEX
  8
0
 10
0.0
 20
8.989514322024
 30
6.015698816773
 70
80
  0
VERTEX
  8
0
 10
0.0
 20
6.88777219214
 30
7.012032104118
 70
80
  0
VERTEX
  8
0
 10
0.0
 20
4.786030062257
 30
8.008365391463
 70
80
  0
VERTEX
  8
0
 10
0.0
 20
2.986032803813
 30
8.005223800404
 70
80
  0
VERTEX
  8
0
 10
-3.359999847412
 20
8.989514322024
 30
6.015698816773
 70
80
  0
VERTEX
  8
0
 10
-3.920000076294
 20
6.88777219214
 30
7.012032104118
 70
80
  0
VERTEX
  8
0
 10
-4.479999923706
 20
4.786030062257
 30
8.008365391463
 70
80
  0
VERTEX
  8
0
 10
-4.479999923706
 20
2.986032803813
 30
8.005223800404
 70
80
  0
VERTEX
  8
0
 10
-6.0
 20
8.994121989176
 30
3.375702685134
 70
80
  0
VERTEX
  8
0
 10
-7.
 20
6.893147803374
 30
3.932036871519
 70
80
  0
VERTEX
  8
0
 10
-8.0
 20
4.792173618238
 30
4.488370676434
 70
80
  0
VERTEX
  8
0
 10
-8.0
 20
2.992176359794
 30
4.485229085375
 70
80
  0
VERTEX
  8
0
 10
-6.0
 20
8.99998629222
 30
1.570795529308E-002
 70
80
  0
VERTEX
  8
0
 10
-7.
 20
6.899989490702
 30
1.204276572470E-002
 70
80
  0
VERTEX
  8
0
 10
-8.0
 20
4.799992689184
 30
8.377576156312E-003
 70
80
  0
VERTEX
  8
0
 10
-8.0
 20
2.99999543074
 30
5.235985097695E-003
 70
80
  0
SEQEND
  0
POLYLINE
  8
0
 62
253
 66
1
 70
20
 75
6
 71
4
 72
4
 73
2
 74
2
  0
VERTEX
  8
0
 10
-6.0
 20
8.99998629222
 30
1.570795529308E-002
 70
72
  0
VERTEX
  8
0
 10
-8.0
 20
2.99999543074
 30
5.235985097695E-003
 70
72
  0
VERTEX
  8
0
 10
0.0
 20
9.010458262415
 30
-5.984282906187
 70
72
  0
VERTEX
  8
0
 10
0.0
 20
3.013958057667
 30
-7.994751830209
 70
72
  0
VERTEX
  8
0
 10
-6.0
 20
8.99998629222
 30
1.570795529308E-002
 70
80
  0
VERTEX
  8
0
 10
-7.
 20
6.899989490702
 30
1.204276572470E-002
 70
80
  0
VERTEX
  8
0
 10
-8.0
 20
4.799992689184
 30
8.377576156312E-003
 70
80
  0
VERTEX
  8
0
 10
-8.0
 20
2.99999543074
 30
5.235985097695E-003
 70
80
  0
VERTEX
  8
0
 10
-6.0
 20
9.005850595263
 30
-3.344286774548
 70
80
  0
VERTEX
  8
0
 10
-7.
 20
6.906831178029
 30
-3.907951340069
 70
80
  0
VERTEX
  8
0
 10
-8.0
 20
4.80781176013
 30
-4.471615524121
 70
80
  0
VERTEX
  8
0
 10
-8.0
 20
3.007814501686
 30
-4.47475711518
 70
80
  0
VERTEX
  8
0
 10
-3.359999847412
 20
9.010458262415
 30
-5.984282906187
 70
80
  0
VERTEX
  8
0
 10
-3.920000076294
 20
6.912206789263
 30
-6.987946572668
 70
80
  0
VERTEX
  8
0
 10
-4.479999923706
 20
4.813955316111
 30
-7.99161023915
 70
80
  0
VERTEX
  8
0
 10
-4.479999923706
 20
3.013958057667
 30
-7.994751830209
 70
80
  0
VERTEX
  8
0
 10
0.0
 20
9.010458262415
 30
-5.984282906187
 70
80
  0
VERTEX
  8
0
 10
0.0
 20
6.912206789263
 30
-6.987946572668
 70
80
  0
VERTEX
  8
0
 10
0.0
 20
4.813955316111
 30
-7.99161023915
 70
80
  0
VERTEX
  8
0
 10
0.0
 20
3.013958057667
 30
-7.994751830209
 70
80
  0
SEQEND
  0
POLYLINE
  8
0
 62
253
 66
1
 70
20
 75
6
 71
4
 72
4
 73
2
 74
2
  0
VERTEX
  8
0
 10
8.0
 20
2.99999543074
 30
5.235985097695E-003
 70
72
  0
VERTEX
  8
0
 10
6.0
 20
0.0
 30
0.0
 70
72
  0
VERTEX
  8
0
 10
0.0
 20
2.986032803813
 30
8.005223800404
 70
72
  0
VERTEX
  8
0
 10
0.0
 20
-1.047197019539E-002
 30
5.99999086148
 70
72
  0
VERTEX
  8
0
 10
8.0
 20
2.99999543074
 30
5.235985097695E-003
 70
80
  0
VERTEX
  8
0
 10
8.0
 20
1.199998172296
 30
2.094394039078E-003
 70
80
  0
VERTEX
  8
0
 10
6.0
 20
0.299999543074
 30
5.235985097695E-004
 70
80
  0
VERTEX
  8
0
 10
6.0
 20
0.0
 30
0.0
 70
80
  0
VERTEX
  8
0
 10
8.0
 20
2.992176359794
 30
4.485229085375
 70
80
  0
VERTEX
  8
0
 10
8.0
 20
1.19217910135
 30
4.482087494317
 70
80
  0
VERTEX
  8
0
 10
6.0
 20
0.294135240031
 30
3.360518328351
 70
80
  0
VERTEX
  8
0
 10
6.0
 20
-5.864303043102E-003
 30
3.359994729841
 70
80
  0
VERTEX
  8
0
 10
4.479999923706
 20
2.986032803813
 30
8.005223800404
 70
80
  0
VERTEX
  8
0
 10
4.479999923706
 20
1.186035545369
 30
8.002082209345
 70
80
  0
VERTEX
  8
0
 10
3.359999847412
 20
0.289527572879
 30
6.000514459989
 70
80
  0
VERTEX
  8
0
 10
3.359999847412
 20
-1.047197019539E-002
 30
5.99999086148
 70
80
  0
VERTEX
  8
0
 10
0.0
 20
2.986032803813
 30
8.005223800404
 70
80
  0
VERTEX
  8
0
 10
0.0
 20
1.186035545369
 30
8.002082209345
 70
80
  0
VERTEX
  8
0
 10
0.0
 20
0.289527572879
 30
6.000514459989
 70
80
  0
VERTEX
  8
0
 10
0.0
 20
-1.047197019539E-002
 30
5.99999086148
 70
80
  0
SEQEND
  0
POLYLINE
  8
0
 62
253
 66
1
 70
20
 75
6
 71
4
 72
4
 73
2
 74
2
  0
VERTEX
  8
0
 10
0.0
 20
3.013958057667
 30
-7.994751830209
 70
72
  0
VERTEX
  8
0
 10
0.0
 20
1.047197019539E-002
 30
-5.99999086148
 70
72
  0
VERTEX
  8
0
 10
8.0
 20
2.99999543074
 30
5.235985097695E-003
 70
72
  0
VERTEX
  8
0
 10
6.0
 20
0.0
 30
0.0
 70
72
  0
VERTEX
  8
0
 10
0.0
 20
3.013958057667
 30
-7.994751830209
 70
80
  0
VERTEX
  8
0
 10
0.0
 20
1.213960799223
 30
-7.997893421267
 70
80
  0
VERTEX
  8
0
 10
0.0
 20
0.310471513269
 30
-5.99946726297
 70
80
  0
VERTEX
  8
0
 10
0.0
 20
1.047197019539E-002
 30
-5.99999086148
 70
80
  0
VERTEX
  8
0
 10
4.479999923706
 20
3.013958057667
 30
-7.994751830209
 70
80
  0
VERTEX
  8
0
 10
4.479999923706
 20
1.213960799223
 30
-7.997893421267
 70
80
  0
VERTEX
  8
0
 10
3.359999847412
 20
0.310471513269
 30
-5.99946726297
 70
80
  0
VERTEX
  8
0
 10
3.359999847412
 20
1.047197019539E-002
 30
-5.99999086148
 70
80
  0
VERTEX
  8
0
 10
8.0
 20
3.007814501686
 30
-4.47475711518
 70
80
  0
VERTEX
  8
0
 10
8.0
 20
1.207817243242
 30
-4.477898706239
 70
80
  0
VERTEX
  8
0
 10
6.0
 20
0.305863846117
 30
-3.359471131331
 70
80
  0
VERTEX
  8
0
 10
6.0
 20
5.864303043102E-003
 30
-3.359994729841
 70
80
  0
VERTEX
  8
0
 10
8.0
 20
2.99999543074
 30
5.235985097695E-003
 70
80
  0
VERTEX
  8
0
 10
8.0
 20
1.199998172296
 30
2.094394039078E-003
 70
80
  0
VERTEX
  8
0
 10
6.0
 20
0.299999543074
 30
5.235985097695E-004
 70
80
  0
VERTEX
  8
0
 10
6.0
 20
0.0
 30
0.0
 70
80
  0
SEQEND
  0
POLYLINE
  8
0
 62
253
 66
1
 70
20
 75
6
 71
4
 72
4
 73
2
 74
2
  0
VERTEX
  8
0
 10
0.0
 20
2.986032803813
 30
8.005223800404
 70
72
  0
VERTEX
  8
0
 10
0.0
 20
-1.047197019539E-002
 30
5.99999086148
 70
72
  0
VERTEX
  8
0
 10
-8.0
 20
2.99999543074
 30
5.235985097695E-003
 70
72
  0
VERTEX
  8
0
 10
-6.0
 20
0.0
 30
0.0
 70
72
  0
VERTEX
  8
0
 10
0.0
 20
2.986032803813
 30
8.005223800404
 70
80
  0
VERTEX
  8
0
 10
0.0
 20
1.186035545369
 30
8.002082209345
 70
80
  0
VERTEX
  8
0
 10
0.0
 20
0.289527572879
 30
6.000514459989
 70
80
  0
VERTEX
  8
0
 10
0.0
 20
-1.047197019539E-002
 30
5.99999086148
 70
80
  0
VERTEX
  8
0
 10
-4.479999923706
 20
2.986032803813
 30
8.005223800404
 70
80
  0
VERTEX
  8
0
 10
-4.479999923706
 20
1.186035545369
 30
8.002082209345
 70
80
  0
VERTEX
  8
0
 10
-3.359999847412
 20
0.289527572879
 30
6.000514459989
 70
80
  0
VERTEX
  8
0
 10
-3.359999847412
 20
-1.047197019539E-002
 30
5.99999086148
 70
80
  0
VERTEX
  8
0
 10
-8.0
 20
2.992176359794
 30
4.485229085375
 70
80
  0
VERTEX
  8
0
 10
-8.0
 20
1.19217910135
 30
4.482087494317
 70
80
  0
VERTEX
  8
0
 10
-6.0
 20
0.294135240031
 30
3.360518328351
 70
80
  0
VERTEX
  8
0
 10
-6.0
 20
-5.864303043102E-003
 30
3.359994729841
 70
80
  0
VERTEX
  8
0
 10
-8.0
 20
2.99999543074
 30
5.235985097695E-003
 70
80
  0
VERTEX
  8
0
 10
-8.0
 20
1.199998172296
 30
2.094394039078E-003
 70
80
  0
VERTEX
  8
0
 10
-6.0
 20
0.299999543074
 30
5.235985097695E-004
 70
80
  0
VERTEX
  8
0
 10
-6.0
 20
0.0
 30
0.0
 70
80
  0
SEQEND
  0
POLYLINE
  8
0
 62
253
 66
1
 70
20
 75
6
 71
4
 72
4
 73
2
 74
2
  0
VERTEX
  8
0
 10
-8.0
 20
2.99999543074
 30
5.235985097695E-003
 70
72
  0
VERTEX
  8
0
 10
-6.0
 20
0.0
 30
0.0
 70
72
  0
VERTEX
  8
0
 10
0.0
 20
3.013958057667
 30
-7.994751830209
 70
72
  0
VERTEX
  8
0
 10
0.0
 20
1.047197019539E-002
 30
-5.99999086148
 70
72
  0
VERTEX
  8
0
 10
-8.0
 20
2.99999543074
 30
5.235985097695E-003
 70
80
  0
VERTEX
  8
0
 10
-8.0
 20
1.199998172296
 30
2.094394039078E-003
 70
80
  0
VERTEX
  8
0
 10
-6.0
 20
0.299999543074
 30
5.235985097695E-004
 70
80
  0
VERTEX
  8
0
 10
-6.0
 20
0.0
 30
0.0
 70
80
  0
VERTEX
  8
0
 10
-8.0
 20
3.007814501686
 30
-4.47475711518
 70
80
  0
VERTEX
  8
0
 10
-8.0
 20
1.207817243242
 30
-4.477898706239
 70
80
  0
VERTEX
  8
0
 10
-6.0
 20
0.305863846117
 30
-3.359471131331
 70
80
  0
VERTEX
  8
0
 10
-6.0
 20
5.864303043102E-003
 30
-3.359994729841
 70
80
  0
VERTEX
  8
0
 10
-4.479999923706
 20
3.013958057667
 30
-7.994751830209
 70
80
  0
VERTEX
  8
0
 10
-4.479999923706
 20
1.213960799223
 30
-7.997893421267
 70
80
  0
VERTEX
  8
0
 10
-3.359999847412
 20
0.310471513269
 30
-5.99946726297
 70
80
  0
VERTEX
  8
0
 10
-3.359999847412
 20
1.047197019539E-002
 30
-5.99999086148
 70
80
  0
VERTEX
  8
0
 10
0.0
 20
3.013958057667
 30
-7.994751830209
 70
80
  0
VERTEX
  8
0
 10
0.0
 20
1.213960799223
 30
-7.997893421267
 70
80
  0
VERTEX
  8
0
 10
0.0
 20
0.310471513269
 30
-5.99946726297
 70
80
  0
VERTEX
  8
0
 10
0.0
 20
1.047197019539E-002
 30
-5.99999086148
 70
80
  0
SEQEND
  0
POLYLINE
  8
0
 66
1
 70
12
 75
6
  0
VERTEX
  8
0
 10
6.0E-016
 20
1.047197019539E-002
 30
-5.99999086148
 70
48
  0
VERTEX
  8
0
 10
-1.679999923706
 20
1.047197019539E-002
 30
-5.99999086148
 70
48
  0
VERTEX
  8
0
 10
-3.179999923706
 20
9.320053407318E-003
 30
-5.33999182857
 70
48
  0
VERTEX
  8
0
 10
-4.25999994278
 20
7.435098738858E-003
 30
-4.25999345443
 70
48
  0
VERTEX
  8
0
 10
-5.339999961853
 20
5.550144070399E-003
 30
-3.17999508029
 70
48
  0
VERTEX
  8
0
 10
-6.0
 20
2.932151521551E-003
 30
-1.67999736492
 70
48
  0
VERTEX
  8
0
 10
-6.0
 20
1.042840360991E-018
 30
-6.0E-016
 70
48
  0
VERTEX
  8
0
 10
6.0E-016
 20
1.047197019539E-002
 30
-5.99999086148
 70
40
  0
VERTEX
  8
0
 10
-0.924433558504
 20
1.035324013632E-002
 30
-5.931963617695
 70
40
  0
VERTEX
  8
0
 10
-1.801406193338
 20
1.000809461782E-002
 30
-5.734210003212
 70
40
  0
VERTEX
  8
0
 10
-2.62142571474
 20
9.453100627928E-003
 30
-5.416222193336
 70
40
  0
VERTEX
  8
0
 10
-3.374999932945
 20
8.704825154698E-003
 30
-4.987492363372
 70
40
  0
VERTEX
  8
0
 10
-4.052636658191
 20
7.779835186175E-003
 30
-4.457512688627
 70
40
  0
VERTEX
  8
0
 10
-4.644843700714
 20
6.694697710409E-003
 30
-3.835775344405
 70
40
  0
VERTEX
  8
0
 10
-5.142128870753
 20
5.465979715448E-003
 30
-3.131772506014
 70
40
  0
VERTEX
  8
0
 10
-5.534999978542
 20
4.110248189338E-003
 30
-2.354996348758
 70
40
  0
VERTEX
  8
0
 10
-5.81396483432
 20
2.644070120130E-003
 30
-1.514939047943
 70
40
  0
VERTEX
  8
0
 10
-5.969531248324
 20
1.084012495870E-003
 30
-0.621092778875
 70
40
  0
VERTEX
  8
0
 10
-6.0
 20
1.042840360991E-018
 30
-6.0E-016
 70
40
  0
SEQEND
  0
POLYLINE
  8
0
 66
1
 70
12
 75
6
  0
VERTEX
  8
0
 10
0.0
 20
0.0
 30
0.0
 70
48
  0
VERTEX
  8
0
 10
2.0E-016
 20
3.490656731797E-003
 30
-1.999996953827
 70
48
  0
VERTEX
  8
0
 10
4.0E-016
 20
6.981313463593E-003
 30
-3.999993907653
 70
48
  0
VERTEX
  8
0
 10
6.0E-016
 20
1.047197019539E-002
 30
-5.99999086148
 70
48
  0
VERTEX
  8
0
 10
0.0
 20
0.0
 30
0.0
 70
40
  0
VERTEX
  8
0
 10
7.468797715710E-017
 20
1.308996274424E-003
 30
-0.749998857685
 70
40
  0
VERTEX
  8
0
 10
1.0E-016
 20
2.617992548847E-003
 30
-1.49999771537
 70
40
  0
VERTEX
  8
0
 10
2.0E-016
 20
3.926988823271E-003
 30
-2.249996573055
 70
40
  0
VERTEX
  8
0
 10
3.0E-016
 20
5.235985097695E-003
 30
-2.99999543074
 70
40
  0
VERTEX
  8
0
 10
4.0E-016
 20
6.544981372119E-003
 30
-3.749994288425
 70
40
  0
VERTEX
  8
0
 10
4.0E-016
 20
7.853977646542E-003
 30
-4.49999314611
 70
40
  0
VERTEX
  8
0
 10
5.0E-016
 20
9.162973920966E-003
 30
-5.249992003795
 70
40
  0
VERTEX
  8
0
 10
6.0E-016
 20
1.047197019539E-002
 30
-5.99999086148
 70
40
  0
SEQEND
  0
POLYLINE
  8
0
 66
1
 70
12
 75
6
  0
VERTEX
  8
0
 10
-6.0
 20
1.042840360991E-018
 30
-6.0E-016
 70
48
  0
VERTEX
  8
0
 10
-6.0
 20
2.932151521551E-003
 30
-1.67999736492
 70
48
  0
VERTEX
  8
0
 10
-5.339999961853
 20
5.550144070399E-003
 30
-3.17999508029
 70
48
  0
VERTEX
  8
0
 10
-4.25999994278
 20
7.435098738858E-003
 30
-4.25999345443
 70
48
  0
VERTEX
  8
0
 10
-6.0
 20
1.042840360991E-018
 30
-6.0E-016
 70
40
  0
VERTEX
  8
0
 10
-5.969531248324
 20
1.084012495870E-003
 30
-0.621092778875
 70
40
  0
VERTEX
  8
0
 10
-5.879999993742
 20
2.133663850849E-003
 30
-1.222498094217
 70
40
  0
VERTEX
  8
0
 10
-5.734218736924
 20
3.144045327738E-003
 30
-1.80140344964
 70
40
  0
VERTEX
  8
0
 10
-5.534999978542
 20
4.110248189338E-003
 30
-2.354996348758
 70
40
  0
VERTEX
  8
0
 10
-5.285156219266
 20
5.027363698450E-003
 30
-2.880464295182
 70
40
  0
VERTEX
  8
0
 10
-4.987499959767
 20
5.890483117873E-003
 30
-3.374994792527
 70
40
  0
VERTEX
  8
0
 10
-4.644843700714
 20
6.694697710409E-003
 30
-3.835775344405
 70
40
  0
VERTEX
  8
0
 10
-4.25999994278
 20
7.435098738858E-003
 30
-4.25999345443
 70
40
  0
SEQEND
  0
POLYLINE
  8
0
 66
1
 70
12
 75
6
  0
VERTEX
  8
0
 10
0.0
 20
0.0
 30
0.0
 70
48
  0
VERTEX
  8
0
 10
-2.0
 20
3.476134536636E-019
 30
-2.0E-016
 70
48
  0
VERTEX
  8
0
 10
-4.0
 20
6.952269073271E-019
 30
-4.0E-016
 70
48
  0
VERTEX
  8
0
 10
-6.0
 20
1.042840360991E-018
 30
-6.0E-016
 70
48
  0
VERTEX
  8
0
 10
0.0
 20
0.0
 30
0.0
 70
40
  0
VERTEX
  8
0
 10
-0.75
 20
1.303550451238E-019
 30
-7.468786340083E-017
 70
40
  0
VERTEX
  8
0
 10
-1.5
 20
2.607100902477E-019
 30
-1.0E-016
 70
40
  0
VERTEX
  8
0
 10
-2.25
 20
3.910651353715E-019
 30
-2.0E-016
 70
40
  0
VERTEX
  8
0
 10
-3.0
 20
5.214201804954E-019
 30
-3.0E-016
 70
40
  0
VERTEX
  8
0
 10
-3.75
 20
6.517752256192E-019
 30
-4.0E-016
 70
40
  0
VERTEX
  8
0
 10
-4.5
 20
7.821302707430E-019
 30
-4.0E-016
 70
40
  0
VERTEX
  8
0
 10
-5.25
 20
9.124853158669E-019
 30
-5.0E-016
 70
40
  0
VERTEX
  8
0
 10
-6.0
 20
1.042840360991E-018
 30
-6.0E-016
 70
40
  0
SEQEND
  0
POLYLINE
  8
0
 66
1
 70
12
 75
6
  0
VERTEX
  8
0
 10
6.0E-016
 20
1.047197019539E-002
 30
-5.99999086148
 70
48
  0
VERTEX
  8
0
 10
-1.679999923706
 20
1.047197019539E-002
 30
-5.99999086148
 70
48
  0
VERTEX
  8
0
 10
-3.179999923706
 20
9.320053407318E-003
 30
-5.33999182857
 70
48
  0
VERTEX
  8
0
 10
-4.25999994278
 20
7.435098738858E-003
 30
-4.25999345443
 70
48
  0
VERTEX
  8
0
 10
6.0E-016
 20
1.047197019539E-002
 30
-5.99999086148
 70
40
  0
VERTEX
  8
0
 10
-0.621093724854
 20
1.041879221882E-002
 30
-5.96952215621
 70
40
  0
VERTEX
  8
0
 10
-1.222499956191
 20
1.026253078056E-002
 30
-5.879991037992
 70
40
  0
VERTEX
  8
0
 10
-1.801406193338
 20
1.000809461782E-002
 30
-5.734210003212
 70
40
  0
VERTEX
  8
0
 10
-2.354999935627
 20
9.660392467796E-003
 30
-5.534991548257
 70
40
  0
VERTEX
  8
0
 10
-2.880468682386
 20
9.224333067689E-003
 30
-5.285148169515
 70
40
  0
VERTEX
  8
0
 10
-3.374999932945
 20
8.704825154698E-003
 30
-4.987492363372
 70
40
  0
VERTEX
  8
0
 10
-3.835781186633
 20
8.106777466021E-003
 30
-4.644836626215
 70
40
  0
VERTEX
  8
0
 10
-4.25999994278
 20
7.435098738858E-003
 30
-4.25999345443
 70
40
  0
SEQEND
  0
POLYLINE
  8
0
 62
253
 66
1
 70
20
 75
6
 71
4
 72
4
 73
2
 74
2
  0
VERTEX
  8
0
 10
-4.25999994278
 20
7.435098738858E-003
 30
-4.25999345443
 70
72
  0
VERTEX
  8
0
 10
-6.0
 20
1.042840360991E-018
 30
-6.0E-016
 70
72
  0
VERTEX
  8
0
 10
6.0E-016
 20
1.047197019539E-002
 30
-5.99999086148
 70
72
  0
VERTEX
  8
0
 10
0.0
 20
0.0
 30
0.0
 70
72
  0
VERTEX
  8
0
 10
-4.25999994278
 20
7.435098738858E-003
 30
-4.25999345443
 70
80
  0
VERTEX
  8
0
 10
-5.339999961853
 20
5.550144070399E-003
 30
-3.17999508029
 70
80
  0
VERTEX
  8
0
 10
-6.
 20
2.932151521551E-003
 30
-1.67999736492
 70
80
  0
VERTEX
  8
0
 10
-6.0
 20
1.042840360991E-018
 30
-6.0E-016
 70
80
  0
VERTEX
  8
0
 10
-3.179999923706
 20
9.320053407318E-003
 30
-5.33999182857
 70
80
  0
VERTEX
  8
0
 10
-3.786666615804
 20
6.608976656763E-003
 30
-3.786660848382
 70
80
  0
VERTEX
  8
0
 10
-4.113333320618
 20
3.409207985949E-003
 30
-1.953330307375
 70
80
  0
VERTEX
  8
0
 10
-4.0
 20
6.952269073271E-019
 30
-4.0E-016
 70
80
  0
VERTEX
  8
0
 10
-1.679999923706
 20
1.047197019539E-002
 30
-5.99999086148
 70
80
  0
VERTEX
  8
0
 10
-1.953333282471
 20
7.179117322868E-003
 30
-4.113327055654
 70
80
  0
VERTEX
  8
0
 10
-2.086666647593
 20
3.641918490218E-003
 30
-2.086663469419
 70
80
  0
VERTEX
  8
0
 10
-2.0
 20
3.476134536636E-019
 30
-2.0E-016
 70
80
  0
VERTEX
  8
0
 10
6.0E-016
 20
1.047197019539E-002
 30
-5.99999086148
 70
80
  0
VERTEX
  8
0
 10
4.0E-016
 20
6.981313463593E-003
 30
-3.999993907653
 70
80
  0
VERTEX
  8
0
 10
2.0E-016
 20
3.490656731797E-003
 30
-1.999996953827
 70
80
  0
VERTEX
  8
0
 10
0.0
 20
0.0
 30
0.0
 70
80
  0
SEQEND
  0
POLYLINE
  8
0
 62
253
 66
1
 70
20
 75
6
 71
4
 72
4
 73
2
 74
2
  0
VERTEX
  8
0
 10
4.25999994278
 20
7.435098738858E-003
 30
-4.25999345443
 70
72
  0
VERTEX
  8
0
 10
1.7E-015
 20
1.047197019539E-002
 30
-5.99999086148
 70
72
  0
VERTEX
  8
0
 10
6.0
 20
-2.966446546738E-018
 30
1.7E-015
 70
72
  0
VERTEX
  8
0
 10
0.0
 20
0.0
 30
0.0
 70
72
  0
VERTEX
  8
0
 10
4.25999994278
 20
7.435098738858E-003
 30
-4.25999345443
 70
80
  0
VERTEX
  8
0
 10
3.179999923706
 20
9.320053407318E-003
 30
-5.33999182857
 70
80
  0
VERTEX
  8
0
 10
1.679999923706
 20
1.047197019539E-002
 30
-5.99999086148
 70
80
  0
VERTEX
  8
0
 10
1.7E-015
 20
1.047197019539E-002
 30
-5.99999086148
 70
80
  0
VERTEX
  8
0
 10
5.339999961853
 20
5.550144070399E-003
 30
-3.17999508029
 70
80
  0
VERTEX
  8
0
 10
3.786666615804
 20
6.608976656763E-003
 30
-3.786660848382
 70
80
  0
VERTEX
  8
0
 10
1.953333282471
 20
7.179117322868E-003
 30
-4.113327055654
 70
80
  0
VERTEX
  8
0
 10
1.1E-015
 20
6.981313463593E-003
 30
-3.999993907653
 70
80
  0
VERTEX
  8
0
 10
6.0
 20
2.932151521551E-003
 30
-1.67999736492
 70
80
  0
VERTEX
  8
0
 10
4.113333320618
 20
3.409207985949E-003
 30
-1.953330307375
 70
80
  0
VERTEX
  8
0
 10
2.086666647593
 20
3.641918490218E-003
 30
-2.086663469419
 70
80
  0
VERTEX
  8
0
 10
6.0E-016
 20
3.490656731797E-003
 30
-1.999996953827
 70
80
  0
VERTEX
  8
0
 10
6.0
 20
-2.966446546738E-018
 30
1.7E-015
 70
80
  0
VERTEX
  8
0
 10
4.0
 20
-1.977631031158E-018
 30
1.1E-015
 70
80
  0
VERTEX
  8
0
 10
2.0
 20
-9.888155155792E-019
 30
6.0E-016
 70
80
  0
VERTEX
  8
0
 10
0.0
 20
0.0
 30
0.0
 70
80
  0
SEQEND
  0
POLYLINE
  8
0
 62
253
 66
1
 70
20
 75
6
 71
4
 72
4
 73
2
 74
2
  0
VERTEX
  8
0
 10
4.25999994278
 20
-7.435098738858E-003
 30
4.25999345443
 70
72
  0
VERTEX
  8
0
 10
6.0
 20
-2.325244484822E-018
 30
1.3E-015
 70
72
  0
VERTEX
  8
0
 10
-1.3E-015
 20
-1.047197019539E-002
 30
5.99999086148
 70
72
  0
VERTEX
  8
0
 10
0.0
 20
0.0
 30
0.0
 70
72
  0
VERTEX
  8
0
 10
4.25999994278
 20
-7.435098738858E-003
 30
4.25999345443
 70
80
  0
VERTEX
  8
0
 10
5.339999961853
 20
-5.550144070399E-003
 30
3.17999508029
 70
80
  0
VERTEX
  8
0
 10
6.
 20
-2.932151521551E-003
 30
1.67999736492
 70
80
  0
VERTEX
  8
0
 10
6.0
 20
-2.325244484822E-018
 30
1.3E-015
 70
80
  0
VERTEX
  8
0
 10
3.179999923706
 20
-9.320053407318E-003
 30
5.33999182857
 70
80
  0
VERTEX
  8
0
 10
3.786666615804
 20
-6.608976656763E-003
 30
3.786660848382
 70
80
  0
VERTEX
  8
0
 10
4.113333320618
 20
-3.409207985949E-003
 30
1.953330307375
 70
80
  0
VERTEX
  8
0
 10
4.0
 20
-1.550162989881E-018
 30
9.0E-016
 70
80
  0
VERTEX
  8
0
 10
1.679999923706
 20
-1.047197019539E-002
 30
5.99999086148
 70
80
  0
VERTEX
  8
0
 10
1.953333282471
 20
-7.179117322868E-003
 30
4.113327055654
 70
80
  0
VERTEX
  8
0
 10
2.086666647593
 20
-3.641918490218E-003
 30
2.086663469419
 70
80
  0
VERTEX
  8
0
 10
2.0
 20
-7.750814949407E-019
 30
4.0E-016
 70
80
  0
VERTEX
  8
0
 10
-1.3E-015
 20
-1.047197019539E-002
 30
5.99999086148
 70
80
  0
VERTEX
  8
0
 10
-9.0E-016
 20
-6.981313463593E-003
 30
3.999993907653
 70
80
  0
VERTEX
  8
0
 10
-4.0E-016
 20
-3.490656731797E-003
 30
1.999996953827
 70
80
  0
VERTEX
  8
0
 10
0.0
 20
0.0
 30
0.0
 70
80
  0
SEQEND
  0
POLYLINE
  8
0
 62
253
 66
1
 70
20
 75
6
 71
4
 72
4
 73
2
 74
2
  0
VERTEX
  8
0
 10
-4.25999994278
 20
-7.435098738858E-003
 30
4.25999345443
 70
72
  0
VERTEX
  8
0
 10
-1.0E-015
 20
-1.047197019539E-002
 30
5.99999086148
 70
72
  0
VERTEX
  8
0
 10
-6.0
 20
1.684042422906E-018
 30
-1.0E-015
 70
72
  0
VERTEX
  8
0
 10
0.0
 20
0.0
 30
0.0
 70
72
  0
VERTEX
  8
0
 10
-4.25999994278
 20
-7.435098738858E-003
 30
4.25999345443
 70
80
  0
VERTEX
  8
0
 10
-3.179999923706
 20
-9.320053407318E-003
 30
5.33999182857
 70
80
  0
VERTEX
  8
0
 10
-1.679999923706
 20
-1.047197019539E-002
 30
5.99999086148
 70
80
  0
VERTEX
  8
0
 10
-1.0E-015
 20
-1.047197019539E-002
 30
5.99999086148
 70
80
  0
VERTEX
  8
0
 10
-5.339999961853
 20
-5.550144070399E-003
 30
3.17999508029
 70
80
  0
VERTEX
  8
0
 10
-3.786666615804
 20
-6.608976656763E-003
 30
3.786660848382
 70
80
  0
VERTEX
  8
0
 10
-1.953333282471
 20
-7.179117322868E-003
 30
4.113327055654
 70
80
  0
VERTEX
  8
0
 10
-6.0E-016
 20
-6.981313463593E-003
 30
3.999993907653
 70
80
  0
VERTEX
  8
0
 10
-6.0
 20
-2.932151521551E-003
 30
1.67999736492
 70
80
  0
VERTEX
  8
0
 10
-4.113333320618
 20
-3.409207985949E-003
 30
1.953330307375
 70
80
  0
VERTEX
  8
0
 10
-2.086666647593
 20
-3.641918490218E-003
 30
2.086663469419
 70
80
  0
VERTEX
  8
0
 10
-3.0E-016
 20
-3.490656731797E-003
 30
1.999996953827
 70
80
  0
VERTEX
  8
0
 10
-6.0
 20
1.684042422906E-018
 30
-1.0E-015
 70
80
  0
VERTEX
  8
0
 10
-4.0
 20
1.122694948604E-018
 30
-6.0E-016
 70
80
  0
VERTEX
  8
0
 10
-2.0
 20
5.613474743021E-019
 30
-3.0E-016
 70
80
  0
VERTEX
  8
0
 10
0.0
 20
0.0
 30
0.0
 70
80
  0
SEQEND
  0
ENDSEC
  0
EOF
