  0
SECTION
  2
HEADER
999
Alias DesignStudio for Windows V10.0.
999
The units used in this file are Inches.
  9
$AUNITS
 70
0
  9
$FILLMODE
 70
1
  9
$SPLFRAME
 70
0
  9
$SPLINESEGS
 70
8
  0
ENDSEC
  0
SECTION
  2
TABLES
  0
ENDSEC
  0
SECTION
  2
BLOCKS
  0
ENDSEC
  0
SECTION
  2
ENTITIES
  0
POLYLINE
  8
0
 62
253
 66
1
 70
20
 75
6
 71
4
 72
4
 73
2
 74
2
  0
VERTEX
  8
0
 10
0.0
 20
0.472440944882
 30
2.892770914541E-017
 70
72
  0
VERTEX
  8
0
 10
-3.149606299213E-002
 20
0.40157480315
 30
2.458855277360E-017
 70
72
  0
VERTEX
  8
0
 10
0.0
 20
0.472440944882
 30
2.892770914541E-017
 70
72
  0
VERTEX
  8
0
 10
0.0
 20
0.40157480315
 30
-3.149606299213E-002
 70
72
  0
VERTEX
  8
0
 10
0.0
 20
0.472440944882
 30
2.892770914541E-017
 70
80
  0
VERTEX
  8
0
 10
-0.125984251969
 20
0.472440944882
 30
2.892770914541E-017
 70
80
  0
VERTEX
  8
0
 10
0.0
 20
0.425196850394
 30
2.603493823087E-017
 70
80
  0
VERTEX
  8
0
 10
-3.149606299213E-002
 20
0.40157480315
 30
2.458855277360E-017
 70
80
  0
VERTEX
  8
0
 10
0.0
 20
0.472440944882
 30
2.892770914541E-017
 70
80
  0
VERTEX
  8
0
 10
-0.125984251969
 20
0.472440944882
 30
-7.086614173228E-002
 70
80
  0
VERTEX
  8
0
 10
0.0
 20
0.425196850394
 30
2.603493823087E-017
 70
80
  0
VERTEX
  8
0
 10
-3.149606299213E-002
 20
0.40157480315
 30
-1.763779535068E-002
 70
80
  0
VERTEX
  8
0
 10
0.0
 20
0.472440944882
 30
2.892770914541E-017
 70
80
  0
VERTEX
  8
0
 10
-7.086614173228E-002
 20
0.472440944882
 30
-0.125984251969
 70
80
  0
VERTEX
  8
0
 10
0.0
 20
0.425196850394
 30
2.603493823087E-017
 70
80
  0
VERTEX
  8
0
 10
-1.763779535068E-002
 20
0.40157480315
 30
-3.149606299213E-002
 70
80
  0
VERTEX
  8
0
 10
0.0
 20
0.472440944882
 30
2.892770914541E-017
 70
80
  0
VERTEX
  8
0
 10
0.0
 20
0.472440944882
 30
-0.125984251969
 70
80
  0
VERTEX
  8
0
 10
0.0
 20
0.425196850394
 30
2.603493823087E-017
 70
80
  0
VERTEX
  8
0
 10
0.0
 20
0.40157480315
 30
-3.149606299213E-002
 70
80
  0
SEQEND
  0
POLYLINE
  8
0
 62
253
 66
1
 70
20
 75
6
 71
4
 72
4
 73
2
 74
2
  0
VERTEX
  8
0
 10
0.0
 20
0.472440944882
 30
2.892770914541E-017
 70
72
  0
VERTEX
  8
0
 10
5.065015670212E-018
 20
0.40157480315
 30
-3.149606299213E-002
 70
72
  0
VERTEX
  8
0
 10
0.0
 20
0.472440944882
 30
2.892770914541E-017
 70
72
  0
VERTEX
  8
0
 10
3.149606299213E-002
 20
0.40157480315
 30
2.965356844381E-017
 70
72
  0
VERTEX
  8
0
 10
0.0
 20
0.472440944882
 30
2.892770914541E-017
 70
80
  0
VERTEX
  8
0
 10
2.026006768301E-017
 20
0.472440944882
 30
-0.125984251969
 70
80
  0
VERTEX
  8
0
 10
0.0
 20
0.425196850394
 30
2.603493823087E-017
 70
80
  0
VERTEX
  8
0
 10
5.065015670212E-018
 20
0.40157480315
 30
-3.149606299213E-002
 70
80
  0
VERTEX
  8
0
 10
0.0
 20
0.472440944882
 30
2.892770914541E-017
 70
80
  0
VERTEX
  8
0
 10
7.086614173228E-002
 20
0.472440944882
 30
-0.125984251969
 70
80
  0
VERTEX
  8
0
 10
0.0
 20
0.425196850394
 30
2.603493823087E-017
 70
80
  0
VERTEX
  8
0
 10
1.763779535068E-002
 20
0.40157480315
 30
-3.149606299213E-002
 70
80
  0
VERTEX
  8
0
 10
0.0
 20
0.472440944882
 30
2.892770914541E-017
 70
80
  0
VERTEX
  8
0
 10
0.125984251969
 20
0.472440944882
 30
-7.086614173228E-002
 70
80
  0
VERTEX
  8
0
 10
0.0
 20
0.425196850394
 30
2.603493823087E-017
 70
80
  0
VERTEX
  8
0
 10
3.149606299213E-002
 20
0.40157480315
 30
-1.763779535068E-002
 70
80
  0
VERTEX
  8
0
 10
0.0
 20
0.472440944882
 30
2.892770914541E-017
 70
80
  0
VERTEX
  8
0
 10
0.125984251969
 20
0.472440944882
 30
4.918777682842E-017
 70
80
  0
VERTEX
  8
0
 10
0.0
 20
0.425196850394
 30
2.603493823087E-017
 70
80
  0
VERTEX
  8
0
 10
3.149606299213E-002
 20
0.40157480315
 30
2.965356844381E-017
 70
80
  0
SEQEND
  0
POLYLINE
  8
0
 62
253
 66
1
 70
20
 75
6
 71
4
 72
4
 73
2
 74
2
  0
VERTEX
  8
0
 10
0.0
 20
0.472440944882
 30
2.892770914541E-017
 70
72
  0
VERTEX
  8
0
 10
3.149606299213E-002
 20
0.40157480315
 30
2.844558065965E-017
 70
72
  0
VERTEX
  8
0
 10
0.0
 20
0.472440944882
 30
2.892770914541E-017
 70
72
  0
VERTEX
  8
0
 10
-3.857027886055E-018
 20
0.40157480315
 30
3.149606299213E-002
 70
72
  0
VERTEX
  8
0
 10
0.0
 20
0.472440944882
 30
2.892770914541E-017
 70
80
  0
VERTEX
  8
0
 10
0.125984251969
 20
0.472440944882
 30
4.435581902224E-017
 70
80
  0
VERTEX
  8
0
 10
0.0
 20
0.425196850394
 30
2.603493823087E-017
 70
80
  0
VERTEX
  8
0
 10
3.149606299213E-002
 20
0.40157480315
 30
2.844558065965E-017
 70
80
  0
VERTEX
  8
0
 10
0.0
 20
0.472440944882
 30
2.892770914541E-017
 70
80
  0
VERTEX
  8
0
 10
0.125984251969
 20
0.472440944882
 30
7.086614173228E-002
 70
80
  0
VERTEX
  8
0
 10
0.0
 20
0.425196850394
 30
2.603493823087E-017
 70
80
  0
VERTEX
  8
0
 10
3.149606299213E-002
 20
0.40157480315
 30
1.763779535068E-002
 70
80
  0
VERTEX
  8
0
 10
0.0
 20
0.472440944882
 30
2.892770914541E-017
 70
80
  0
VERTEX
  8
0
 10
7.086614173228E-002
 20
0.472440944882
 30
0.125984251969
 70
80
  0
VERTEX
  8
0
 10
0.0
 20
0.425196850394
 30
2.603493823087E-017
 70
80
  0
VERTEX
  8
0
 10
1.763779535068E-002
 20
0.40157480315
 30
3.149606299213E-002
 70
80
  0
VERTEX
  8
0
 10
0.0
 20
0.472440944882
 30
2.892770914541E-017
 70
80
  0
VERTEX
  8
0
 10
-1.542810987683E-017
 20
0.472440944882
 30
0.125984251969
 70
80
  0
VERTEX
  8
0
 10
0.0
 20
0.425196850394
 30
2.603493823087E-017
 70
80
  0
VERTEX
  8
0
 10
-3.857027886055E-018
 20
0.40157480315
 30
3.149606299213E-002
 70
80
  0
SEQEND
  0
POLYLINE
  8
0
 62
253
 66
1
 70
20
 75
6
 71
4
 72
4
 73
2
 74
2
  0
VERTEX
  8
0
 10
0.0
 20
0.472440944882
 30
2.892770914541E-017
 70
72
  0
VERTEX
  8
0
 10
-1.928513734604E-018
 20
0.40157480315
 30
3.149606299213E-002
 70
72
  0
VERTEX
  8
0
 10
0.0
 20
0.472440944882
 30
2.892770914541E-017
 70
72
  0
VERTEX
  8
0
 10
-3.149606299213E-002
 20
0.40157480315
 30
2.266003903900E-017
 70
72
  0
VERTEX
  8
0
 10
0.0
 20
0.472440944882
 30
2.892770914541E-017
 70
80
  0
VERTEX
  8
0
 10
-7.714054938416E-018
 20
0.472440944882
 30
0.125984251969
 70
80
  0
VERTEX
  8
0
 10
0.0
 20
0.425196850394
 30
2.603493823087E-017
 70
80
  0
VERTEX
  8
0
 10
-1.928513734604E-018
 20
0.40157480315
 30
3.149606299213E-002
 70
80
  0
VERTEX
  8
0
 10
0.0
 20
0.472440944882
 30
2.892770914541E-017
 70
80
  0
VERTEX
  8
0
 10
-7.086614173228E-002
 20
0.472440944882
 30
0.125984251969
 70
80
  0
VERTEX
  8
0
 10
0.0
 20
0.425196850394
 30
2.603493823087E-017
 70
80
  0
VERTEX
  8
0
 10
-1.763779535068E-002
 20
0.40157480315
 30
3.149606299213E-002
 70
80
  0
VERTEX
  8
0
 10
0.0
 20
0.472440944882
 30
2.892770914541E-017
 70
80
  0
VERTEX
  8
0
 10
-0.125984251969
 20
0.472440944882
 30
7.086614173228E-002
 70
80
  0
VERTEX
  8
0
 10
0.0
 20
0.425196850394
 30
2.603493823087E-017
 70
80
  0
VERTEX
  8
0
 10
-3.149606299213E-002
 20
0.40157480315
 30
1.763779535068E-002
 70
80
  0
VERTEX
  8
0
 10
0.0
 20
0.472440944882
 30
2.892770914541E-017
 70
80
  0
VERTEX
  8
0
 10
-0.125984251969
 20
0.472440944882
 30
2.121365420699E-017
 70
80
  0
VERTEX
  8
0
 10
0.0
 20
0.425196850394
 30
2.603493823087E-017
 70
80
  0
VERTEX
  8
0
 10
-3.149606299213E-002
 20
0.40157480315
 30
2.266003903900E-017
 70
80
  0
SEQEND
  0
POLYLINE
  8
0
 62
253
 66
1
 70
20
 75
6
 71
4
 72
4
 73
2
 74
2
  0
VERTEX
  8
0
 10
-3.149606299213E-002
 20
0.40157480315
 30
2.458855277360E-017
 70
72
  0
VERTEX
  8
0
 10
-0.204724409449
 20
0.354330708661
 30
2.169578185906E-017
 70
72
  0
VERTEX
  8
0
 10
0.0
 20
0.40157480315
 30
-3.149606299213E-002
 70
72
  0
VERTEX
  8
0
 10
0.0
 20
0.354330708661
 30
-0.204724409449
 70
72
  0
VERTEX
  8
0
 10
-3.149606299213E-002
 20
0.40157480315
 30
2.458855277360E-017
 70
80
  0
VERTEX
  8
0
 10
-6.299212598425E-002
 20
0.377952755906
 30
2.314216731633E-017
 70
80
  0
VERTEX
  8
0
 10
-0.204724409449
 20
0.377952755906
 30
2.314216731633E-017
 70
80
  0
VERTEX
  8
0
 10
-0.204724409449
 20
0.354330708661
 30
2.169578185906E-017
 70
80
  0
VERTEX
  8
0
 10
-3.149606299213E-002
 20
0.40157480315
 30
-1.763779535068E-002
 70
80
  0
VERTEX
  8
0
 10
-6.299212598425E-002
 20
0.377952755906
 30
-3.527559070137E-002
 70
80
  0
VERTEX
  8
0
 10
-0.204724409449
 20
0.377952755906
 30
-0.114645672595
 70
80
  0
VERTEX
  8
0
 10
-0.204724409449
 20
0.354330708661
 30
-0.114645672595
 70
80
  0
VERTEX
  8
0
 10
-1.763779535068E-002
 20
0.40157480315
 30
-3.149606299213E-002
 70
80
  0
VERTEX
  8
0
 10
-3.527559070137E-002
 20
0.377952755906
 30
-6.299212598425E-002
 70
80
  0
VERTEX
  8
0
 10
-0.114645672595
 20
0.377952755906
 30
-0.204724409449
 70
80
  0
VERTEX
  8
0
 10
-0.114645672595
 20
0.354330708661
 30
-0.204724409449
 70
80
  0
VERTEX
  8
0
 10
0.0
 20
0.40157480315
 30
-3.149606299213E-002
 70
80
  0
VERTEX
  8
0
 10
0.0
 20
0.377952755906
 30
-6.299212598425E-002
 70
80
  0
VERTEX
  8
0
 10
0.0
 20
0.377952755906
 30
-0.204724409449
 70
80
  0
VERTEX
  8
0
 10
0.0
 20
0.354330708661
 30
-0.204724409449
 70
80
  0
SEQEND
  0
POLYLINE
  8
0
 62
253
 66
1
 70
20
 75
6
 71
4
 72
4
 73
2
 74
2
  0
VERTEX
  8
0
 10
5.065015670212E-018
 20
0.40157480315
 30
-3.149606299213E-002
 70
72
  0
VERTEX
  8
0
 10
3.292260998490E-017
 20
0.354330708661
 30
-0.204724409449
 70
72
  0
VERTEX
  8
0
 10
3.149606299213E-002
 20
0.40157480315
 30
2.965356844381E-017
 70
72
  0
VERTEX
  8
0
 10
0.204724409449
 20
0.354330708661
 30
5.461839184395E-017
 70
72
  0
VERTEX
  8
0
 10
5.065015670212E-018
 20
0.40157480315
 30
-3.149606299213E-002
 70
80
  0
VERTEX
  8
0
 10
1.013003550889E-017
 20
0.377952755906
 30
-6.299212598425E-002
 70
80
  0
VERTEX
  8
0
 10
3.292260998490E-017
 20
0.377952755906
 30
-0.204724409449
 70
80
  0
VERTEX
  8
0
 10
3.292260998490E-017
 20
0.354330708661
 30
-0.204724409449
 70
80
  0
VERTEX
  8
0
 10
1.763779535068E-002
 20
0.40157480315
 30
-3.149606299213E-002
 70
80
  0
VERTEX
  8
0
 10
3.527559070137E-002
 20
0.377952755906
 30
-6.299212598425E-002
 70
80
  0
VERTEX
  8
0
 10
0.114645672595
 20
0.377952755906
 30
-0.204724409449
 70
80
  0
VERTEX
  8
0
 10
0.114645672595
 20
0.354330708661
 30
-0.204724409449
 70
80
  0
VERTEX
  8
0
 10
3.149606299213E-002
 20
0.40157480315
 30
-1.763779535068E-002
 70
80
  0
VERTEX
  8
0
 10
6.299212598425E-002
 20
0.377952755906
 30
-3.527559070137E-002
 70
80
  0
VERTEX
  8
0
 10
0.204724409449
 20
0.377952755906
 30
-0.114645672595
 70
80
  0
VERTEX
  8
0
 10
0.204724409449
 20
0.354330708661
 30
-0.114645672595
 70
80
  0
VERTEX
  8
0
 10
3.149606299213E-002
 20
0.40157480315
 30
2.965356844381E-017
 70
80
  0
VERTEX
  8
0
 10
6.299212598425E-002
 20
0.377952755906
 30
3.327220282522E-017
 70
80
  0
VERTEX
  8
0
 10
0.204724409449
 20
0.377952755906
 30
5.606477730122E-017
 70
80
  0
VERTEX
  8
0
 10
0.204724409449
 20
0.354330708661
 30
5.461839184395E-017
 70
80
  0
SEQEND
  0
POLYLINE
  8
0
 62
253
 66
1
 70
20
 75
6
 71
4
 72
4
 73
2
 74
2
  0
VERTEX
  8
0
 10
-3.857027886055E-018
 20
0.40157480315
 30
3.149606299213E-002
 70
72
  0
VERTEX
  8
0
 10
-2.507068125936E-017
 20
0.354330708661
 30
0.204724409449
 70
72
  0
VERTEX
  8
0
 10
3.149606299213E-002
 20
0.40157480315
 30
2.844558065965E-017
 70
72
  0
VERTEX
  8
0
 10
0.204724409449
 20
0.354330708661
 30
4.676646311841E-017
 70
72
  0
VERTEX
  8
0
 10
-3.857027886055E-018
 20
0.40157480315
 30
3.149606299213E-002
 70
80
  0
VERTEX
  8
0
 10
-7.714054938416E-018
 20
0.377952755906
 30
6.299212598425E-002
 70
80
  0
VERTEX
  8
0
 10
-2.507068125936E-017
 20
0.377952755906
 30
0.204724409449
 70
80
  0
VERTEX
  8
0
 10
-2.507068125936E-017
 20
0.354330708661
 30
0.204724409449
 70
80
  0
VERTEX
  8
0
 10
1.763779535068E-002
 20
0.40157480315
 30
3.149606299213E-002
 70
80
  0
VERTEX
  8
0
 10
3.527559070137E-002
 20
0.377952755906
 30
6.299212598425E-002
 70
80
  0
VERTEX
  8
0
 10
0.114645672595
 20
0.377952755906
 30
0.204724409449
 70
80
  0
VERTEX
  8
0
 10
0.114645672595
 20
0.354330708661
 30
0.204724409449
 70
80
  0
VERTEX
  8
0
 10
3.149606299213E-002
 20
0.40157480315
 30
1.763779535068E-002
 70
80
  0
VERTEX
  8
0
 10
6.299212598425E-002
 20
0.377952755906
 30
3.527559070137E-002
 70
80
  0
VERTEX
  8
0
 10
0.204724409449
 20
0.377952755906
 30
0.114645672595
 70
80
  0
VERTEX
  8
0
 10
0.204724409449
 20
0.354330708661
 30
0.114645672595
 70
80
  0
VERTEX
  8
0
 10
3.149606299213E-002
 20
0.40157480315
 30
2.844558065965E-017
 70
80
  0
VERTEX
  8
0
 10
6.299212598425E-002
 20
0.377952755906
 30
3.085622225474E-017
 70
80
  0
VERTEX
  8
0
 10
0.204724409449
 20
0.377952755906
 30
4.821284857568E-017
 70
80
  0
VERTEX
  8
0
 10
0.204724409449
 20
0.354330708661
 30
4.676646311841E-017
 70
80
  0
SEQEND
  0
POLYLINE
  8
0
 62
253
 66
1
 70
20
 75
6
 71
4
 72
4
 73
2
 74
2
  0
VERTEX
  8
0
 10
-1.928513734604E-018
 20
0.40157480315
 30
3.149606299213E-002
 70
72
  0
VERTEX
  8
0
 10
-1.253534229707E-017
 20
0.354330708661
 30
0.204724409449
 70
72
  0
VERTEX
  8
0
 10
-3.149606299213E-002
 20
0.40157480315
 30
2.266003903900E-017
 70
72
  0
VERTEX
  8
0
 10
-0.204724409449
 20
0.354330708661
 30
9.160439561992E-018
 70
72
  0
VERTEX
  8
0
 10
-1.928513734604E-018
 20
0.40157480315
 30
3.149606299213E-002
 70
80
  0
VERTEX
  8
0
 10
-3.857027886055E-018
 20
0.377952755906
 30
6.299212598425E-002
 70
80
  0
VERTEX
  8
0
 10
-1.253534229707E-017
 20
0.377952755906
 30
0.204724409449
 70
80
  0
VERTEX
  8
0
 10
-1.253534229707E-017
 20
0.354330708661
 30
0.204724409449
 70
80
  0
VERTEX
  8
0
 10
-1.763779535068E-002
 20
0.40157480315
 30
3.149606299213E-002
 70
80
  0
VERTEX
  8
0
 10
-3.527559070137E-002
 20
0.377952755906
 30
6.299212598425E-002
 70
80
  0
VERTEX
  8
0
 10
-0.114645672595
 20
0.377952755906
 30
0.204724409449
 70
80
  0
VERTEX
  8
0
 10
-0.114645672595
 20
0.354330708661
 30
0.204724409449
 70
80
  0
VERTEX
  8
0
 10
-3.149606299213E-002
 20
0.40157480315
 30
1.763779535068E-002
 70
80
  0
VERTEX
  8
0
 10
-6.299212598425E-002
 20
0.377952755906
 30
3.527559070137E-002
 70
80
  0
VERTEX
  8
0
 10
-0.204724409449
 20
0.377952755906
 30
0.114645672595
 70
80
  0
VERTEX
  8
0
 10
-0.204724409449
 20
0.354330708661
 30
0.114645672595
 70
80
  0
VERTEX
  8
0
 10
-3.149606299213E-002
 20
0.40157480315
 30
2.266003903900E-017
 70
80
  0
VERTEX
  8
0
 10
-6.299212598425E-002
 20
0.377952755906
 30
1.928513943027E-017
 70
80
  0
VERTEX
  8
0
 10
-0.204724409449
 20
0.377952755906
 30
1.060682501926E-017
 70
80
  0
VERTEX
  8
0
 10
-0.204724409449
 20
0.354330708661
 30
9.160439561992E-018
 70
80
  0
SEQEND
  0
POLYLINE
  8
0
 62
253
 66
1
 70
20
 75
6
 71
4
 72
4
 73
2
 74
2
  0
VERTEX
  8
0
 10
0.0
 20
0.354330708661
 30
-0.196850393701
 70
72
  0
VERTEX
  8
0
 10
0.0
 20
0.354330708661
 30
-0.220472440945
 70
72
  0
VERTEX
  8
0
 10
-0.196850393701
 20
0.354330708661
 30
2.169578185906E-017
 70
72
  0
VERTEX
  8
0
 10
-0.220472440945
 20
0.354330708661
 30
2.169578185906E-017
 70
72
  0
VERTEX
  8
0
 10
0.0
 20
0.354330708661
 30
-0.196850393701
 70
80
  0
VERTEX
  8
0
 10
0.0
 20
0.354330708661
 30
-0.204724409449
 70
80
  0
VERTEX
  8
0
 10
0.0
 20
0.354330708661
 30
-0.212598425197
 70
80
  0
VERTEX
  8
0
 10
0.0
 20
0.354330708661
 30
-0.220472440945
 70
80
  0
VERTEX
  8
0
 10
-0.110236220472
 20
0.354330708661
 30
-0.196850393701
 70
80
  0
VERTEX
  8
0
 10
-0.114645672595
 20
0.354330708661
 30
-0.204724409449
 70
80
  0
VERTEX
  8
0
 10
-0.119055117209
 20
0.354330708661
 30
-0.212598425197
 70
80
  0
VERTEX
  8
0
 10
-0.123464569332
 20
0.354330708661
 30
-0.220472440945
 70
80
  0
VERTEX
  8
0
 10
-0.196850393701
 20
0.354330708661
 30
-0.110236220472
 70
80
  0
VERTEX
  8
0
 10
-0.204724409449
 20
0.354330708661
 30
-0.114645672595
 70
80
  0
VERTEX
  8
0
 10
-0.212598425197
 20
0.354330708661
 30
-0.119055117209
 70
80
  0
VERTEX
  8
0
 10
-0.220472440945
 20
0.354330708661
 30
-0.123464569332
 70
80
  0
VERTEX
  8
0
 10
-0.196850393701
 20
0.354330708661
 30
2.169578185906E-017
 70
80
  0
VERTEX
  8
0
 10
-0.204724409449
 20
0.354330708661
 30
2.169578185906E-017
 70
80
  0
VERTEX
  8
0
 10
-0.212598425197
 20
0.354330708661
 30
2.169578185906E-017
 70
80
  0
VERTEX
  8
0
 10
-0.220472440945
 20
0.354330708661
 30
2.169578185906E-017
 70
80
  0
SEQEND
  0
POLYLINE
  8
0
 62
253
 66
1
 70
20
 75
6
 71
4
 72
4
 73
2
 74
2
  0
VERTEX
  8
0
 10
0.196850393701
 20
0.354330708661
 30
5.335213761377E-017
 70
72
  0
VERTEX
  8
0
 10
0.220472440945
 20
0.354330708661
 30
5.715090030433E-017
 70
72
  0
VERTEX
  8
0
 10
3.165635575471E-017
 20
0.354330708661
 30
-0.196850393701
 70
72
  0
VERTEX
  8
0
 10
3.545511844527E-017
 20
0.354330708661
 30
-0.220472440945
 70
72
  0
VERTEX
  8
0
 10
0.196850393701
 20
0.354330708661
 30
5.335213761377E-017
 70
80
  0
VERTEX
  8
0
 10
0.204724409449
 20
0.354330708661
 30
5.461839184395E-017
 70
80
  0
VERTEX
  8
0
 10
0.212598425197
 20
0.354330708661
 30
5.588464940892E-017
 70
80
  0
VERTEX
  8
0
 10
0.220472440945
 20
0.354330708661
 30
5.715090030433E-017
 70
80
  0
VERTEX
  8
0
 10
0.196850393701
 20
0.354330708661
 30
-0.110236220472
 70
80
  0
VERTEX
  8
0
 10
0.204724409449
 20
0.354330708661
 30
-0.114645672595
 70
80
  0
VERTEX
  8
0
 10
0.212598425197
 20
0.354330708661
 30
-0.119055117209
 70
80
  0
VERTEX
  8
0
 10
0.220472440945
 20
0.354330708661
 30
-0.123464569332
 70
80
  0
VERTEX
  8
0
 10
0.110236220472
 20
0.354330708661
 30
-0.196850393701
 70
80
  0
VERTEX
  8
0
 10
0.114645672595
 20
0.354330708661
 30
-0.204724409449
 70
80
  0
VERTEX
  8
0
 10
0.119055117209
 20
0.354330708661
 30
-0.212598425197
 70
80
  0
VERTEX
  8
0
 10
0.123464569332
 20
0.354330708661
 30
-0.220472440945
 70
80
  0
VERTEX
  8
0
 10
3.165635575471E-017
 20
0.354330708661
 30
-0.196850393701
 70
80
  0
VERTEX
  8
0
 10
3.292260998490E-017
 20
0.354330708661
 30
-0.204724409449
 70
80
  0
VERTEX
  8
0
 10
3.418886754986E-017
 20
0.354330708661
 30
-0.212598425197
 70
80
  0
VERTEX
  8
0
 10
3.545511844527E-017
 20
0.354330708661
 30
-0.220472440945
 70
80
  0
SEQEND
  0
POLYLINE
  8
0
 62
253
 66
1
 70
20
 75
6
 71
4
 72
4
 73
2
 74
2
  0
VERTEX
  8
0
 10
-2.410642595523E-017
 20
0.354330708661
 30
0.196850393701
 70
72
  0
VERTEX
  8
0
 10
-2.699919686977E-017
 20
0.354330708661
 30
0.220472440945
 70
72
  0
VERTEX
  8
0
 10
0.196850393701
 20
0.354330708661
 30
4.580220781429E-017
 70
72
  0
VERTEX
  8
0
 10
0.220472440945
 20
0.354330708661
 30
4.869497872883E-017
 70
72
  0
VERTEX
  8
0
 10
-2.410642595523E-017
 20
0.354330708661
 30
0.196850393701
 70
80
  0
VERTEX
  8
0
 10
-2.507068125936E-017
 20
0.354330708661
 30
0.204724409449
 70
80
  0
VERTEX
  8
0
 10
-2.603493656348E-017
 20
0.354330708661
 30
0.212598425197
 70
80
  0
VERTEX
  8
0
 10
-2.699919686977E-017
 20
0.354330708661
 30
0.220472440945
 70
80
  0
VERTEX
  8
0
 10
0.110236220472
 20
0.354330708661
 30
0.196850393701
 70
80
  0
VERTEX
  8
0
 10
0.114645672595
 20
0.354330708661
 30
0.204724409449
 70
80
  0
VERTEX
  8
0
 10
0.119055117209
 20
0.354330708661
 30
0.212598425197
 70
80
  0
VERTEX
  8
0
 10
0.123464569332
 20
0.354330708661
 30
0.220472440945
 70
80
  0
VERTEX
  8
0
 10
0.196850393701
 20
0.354330708661
 30
0.110236220472
 70
80
  0
VERTEX
  8
0
 10
0.204724409449
 20
0.354330708661
 30
0.114645672595
 70
80
  0
VERTEX
  8
0
 10
0.212598425197
 20
0.354330708661
 30
0.119055117209
 70
80
  0
VERTEX
  8
0
 10
0.220472440945
 20
0.354330708661
 30
0.123464569332
 70
80
  0
VERTEX
  8
0
 10
0.196850393701
 20
0.354330708661
 30
4.580220781429E-017
 70
80
  0
VERTEX
  8
0
 10
0.204724409449
 20
0.354330708661
 30
4.676646311841E-017
 70
80
  0
VERTEX
  8
0
 10
0.212598425197
 20
0.354330708661
 30
4.773071842254E-017
 70
80
  0
VERTEX
  8
0
 10
0.220472440945
 20
0.354330708661
 30
4.869497872883E-017
 70
80
  0
SEQEND
  0
POLYLINE
  8
0
 62
253
 66
1
 70
20
 75
6
 71
4
 72
4
 73
2
 74
2
  0
VERTEX
  8
0
 10
-0.196850393701
 20
0.354330708661
 30
9.642568881443E-018
 70
72
  0
VERTEX
  8
0
 10
-0.220472440945
 20
0.354330708661
 30
8.196183424172E-018
 70
72
  0
VERTEX
  8
0
 10
-1.205321297761E-017
 20
0.354330708661
 30
0.196850393701
 70
72
  0
VERTEX
  8
0
 10
-1.349959843489E-017
 20
0.354330708661
 30
0.220472440945
 70
72
  0
VERTEX
  8
0
 10
-0.196850393701
 20
0.354330708661
 30
9.642568881443E-018
 70
80
  0
VERTEX
  8
0
 10
-0.204724409449
 20
0.354330708661
 30
9.160439561992E-018
 70
80
  0
VERTEX
  8
0
 10
-0.212598425197
 20
0.354330708661
 30
8.678313577317E-018
 70
80
  0
VERTEX
  8
0
 10
-0.220472440945
 20
0.354330708661
 30
8.196183424172E-018
 70
80
  0
VERTEX
  8
0
 10
-0.196850393701
 20
0.354330708661
 30
0.110236220472
 70
80
  0
VERTEX
  8
0
 10
-0.204724409449
 20
0.354330708661
 30
0.114645672595
 70
80
  0
VERTEX
  8
0
 10
-0.212598425197
 20
0.354330708661
 30
0.119055117209
 70
80
  0
VERTEX
  8
0
 10
-0.220472440945
 20
0.354330708661
 30
0.123464569332
 70
80
  0
VERTEX
  8
0
 10
-0.110236220472
 20
0.354330708661
 30
0.196850393701
 70
80
  0
VERTEX
  8
0
 10
-0.114645672595
 20
0.354330708661
 30
0.204724409449
 70
80
  0
VERTEX
  8
0
 10
-0.119055117209
 20
0.354330708661
 30
0.212598425197
 70
80
  0
VERTEX
  8
0
 10
-0.123464569332
 20
0.354330708661
 30
0.220472440945
 70
80
  0
VERTEX
  8
0
 10
-1.205321297761E-017
 20
0.354330708661
 30
0.196850393701
 70
80
  0
VERTEX
  8
0
 10
-1.253534229707E-017
 20
0.354330708661
 30
0.204724409449
 70
80
  0
VERTEX
  8
0
 10
-1.301746828174E-017
 20
0.354330708661
 30
0.212598425197
 70
80
  0
VERTEX
  8
0
 10
-1.349959843489E-017
 20
0.354330708661
 30
0.220472440945
 70
80
  0
SEQEND
  0
POLYLINE
  8
0
 62
253
 66
1
 70
20
 75
6
 71
4
 72
4
 73
2
 74
2
  0
VERTEX
  8
0
 10
0.425196850394
 20
0.354330708661
 30
2.169578185906E-017
 70
72
  0
VERTEX
  8
0
 10
0.44094488189
 20
0.354330708661
 30
2.169578185906E-017
 70
72
  0
VERTEX
  8
0
 10
0.51968503937
 20
0.354330708661
 30
2.169578185906E-017
 70
72
  0
VERTEX
  8
0
 10
0.503937007874
 20
0.354330708661
 30
2.169578185906E-017
 70
72
  0
VERTEX
  8
0
 10
0.425196850394
 20
0.354330708661
 30
2.169578185906E-017
 70
80
  0
VERTEX
  8
0
 10
0.44094488189
 20
0.366141732283
 30
2.241897458769E-017
 70
80
  0
VERTEX
  8
0
 10
0.456692913386
 20
0.366141732283
 30
2.241897458769E-017
 70
80
  0
VERTEX
  8
0
 10
0.44094488189
 20
0.354330708661
 30
2.169578185906E-017
 70
80
  0
VERTEX
  8
0
 10
0.425196850394
 20
0.354330708661
 30
3.937007874016E-002
 70
80
  0
VERTEX
  8
0
 10
0.44094488189
 20
0.366141732283
 30
3.937007874016E-002
 70
80
  0
VERTEX
  8
0
 10
0.456692913386
 20
0.366141732283
 30
2.362204724409E-002
 70
80
  0
VERTEX
  8
0
 10
0.44094488189
 20
0.354330708661
 30
2.362204724409E-002
 70
80
  0
VERTEX
  8
0
 10
0.51968503937
 20
0.354330708661
 30
3.937007874016E-002
 70
80
  0
VERTEX
  8
0
 10
0.555118110236
 20
0.369094488189
 30
3.937007874016E-002
 70
80
  0
VERTEX
  8
0
 10
0.543307086614
 20
0.372047244094
 30
2.362204724409E-002
 70
80
  0
VERTEX
  8
0
 10
0.503937007874
 20
0.354330708661
 30
2.362204724409E-002
 70
80
  0
VERTEX
  8
0
 10
0.51968503937
 20
0.354330708661
 30
2.169578185906E-017
 70
80
  0
VERTEX
  8
0
 10
0.555118110236
 20
0.369094488189
 30
2.259977276985E-017
 70
80
  0
VERTEX
  8
0
 10
0.543307086614
 20
0.372047244094
 30
2.278057095201E-017
 70
80
  0
VERTEX
  8
0
 10
0.503937007874
 20
0.354330708661
 30
2.169578185906E-017
 70
80
  0
SEQEND
  0
POLYLINE
  8
0
 62
253
 66
1
 70
20
 75
6
 71
4
 72
4
 73
2
 74
2
  0
VERTEX
  8
0
 10
0.425196850394
 20
0.354330708661
 30
2.169578185906E-017
 70
72
  0
VERTEX
  8
0
 10
0.44094488189
 20
0.354330708661
 30
2.169578185906E-017
 70
72
  0
VERTEX
  8
0
 10
0.51968503937
 20
0.354330708661
 30
2.169578185906E-017
 70
72
  0
VERTEX
  8
0
 10
0.503937007874
 20
0.354330708661
 30
2.169578185906E-017
 70
72
  0
VERTEX
  8
0
 10
0.425196850394
 20
0.354330708661
 30
2.169578185906E-017
 70
80
  0
VERTEX
  8
0
 10
0.44094488189
 20
0.366141732283
 30
2.241897458769E-017
 70
80
  0
VERTEX
  8
0
 10
0.456692913386
 20
0.366141732283
 30
2.241897458769E-017
 70
80
  0
VERTEX
  8
0
 10
0.44094488189
 20
0.354330708661
 30
2.169578185906E-017
 70
80
  0
VERTEX
  8
0
 10
0.425196850394
 20
0.354330708661
 30
-3.937007874016E-002
 70
80
  0
VERTEX
  8
0
 10
0.44094488189
 20
0.366141732283
 30
-3.937007874016E-002
 70
80
  0
VERTEX
  8
0
 10
0.456692913386
 20
0.366141732283
 30
-2.362204724409E-002
 70
80
  0
VERTEX
  8
0
 10
0.44094488189
 20
0.354330708661
 30
-2.362204724409E-002
 70
80
  0
VERTEX
  8
0
 10
0.51968503937
 20
0.354330708661
 30
-3.937007874016E-002
 70
80
  0
VERTEX
  8
0
 10
0.555118110236
 20
0.369094488189
 30
-3.937007874016E-002
 70
80
  0
VERTEX
  8
0
 10
0.543307086614
 20
0.372047244094
 30
-2.362204724409E-002
 70
80
  0
VERTEX
  8
0
 10
0.503937007874
 20
0.354330708661
 30
-2.362204724409E-002
 70
80
  0
VERTEX
  8
0
 10
0.51968503937
 20
0.354330708661
 30
2.169578185906E-017
 70
80
  0
VERTEX
  8
0
 10
0.555118110236
 20
0.369094488189
 30
2.259977276985E-017
 70
80
  0
VERTEX
  8
0
 10
0.543307086614
 20
0.372047244094
 30
2.278057095201E-017
 70
80
  0
VERTEX
  8
0
 10
0.503937007874
 20
0.354330708661
 30
2.169578185906E-017
 70
80
  0
SEQEND
  0
POLYLINE
  8
0
 62
253
 66
1
 70
20
 75
6
 71
4
 72
4
 73
2
 74
2
  0
VERTEX
  8
0
 10
0.267716535433
 20
0.200787401575
 30
1.229427638680E-017
 70
72
  0
VERTEX
  8
0
 10
0.425196850394
 20
0.354330708661
 30
2.169578185906E-017
 70
72
  0
VERTEX
  8
0
 10
0.267716535433
 20
7.086614173228E-002
 30
4.339156371812E-018
 70
72
  0
VERTEX
  8
0
 10
0.51968503937
 20
0.354330708661
 30
2.169578185906E-017
 70
72
  0
VERTEX
  8
0
 10
0.267716535433
 20
0.200787401575
 30
1.229427638680E-017
 70
80
  0
VERTEX
  8
0
 10
0.409448818898
 20
0.200787401575
 30
1.229427638680E-017
 70
80
  0
VERTEX
  8
0
 10
0.362204724409
 20
0.307086614173
 30
1.880301094452E-017
 70
80
  0
VERTEX
  8
0
 10
0.425196850394
 20
0.354330708661
 30
2.169578185906E-017
 70
80
  0
VERTEX
  8
0
 10
0.267716535433
 20
0.200787401575
 30
0.103937006372
 70
80
  0
VERTEX
  8
0
 10
0.409448818898
 20
0.200787401575
 30
0.103937006372
 70
80
  0
VERTEX
  8
0
 10
0.362204724409
 20
0.307086614173
 30
3.937007874016E-002
 70
80
  0
VERTEX
  8
0
 10
0.425196850394
 20
0.354330708661
 30
3.937007874016E-002
 70
80
  0
VERTEX
  8
0
 10
0.267716535433
 20
7.086614173228E-002
 30
0.103937006372
 70
80
  0
VERTEX
  8
0
 10
0.488188976378
 20
0.106299212598
 30
0.103937006372
 70
80
  0
VERTEX
  8
0
 10
0.377952755906
 20
0.295275590551
 30
3.937007874016E-002
 70
80
  0
VERTEX
  8
0
 10
0.51968503937
 20
0.354330708661
 30
3.937007874016E-002
 70
80
  0
VERTEX
  8
0
 10
0.267716535433
 20
7.086614173228E-002
 30
4.339156371812E-018
 70
80
  0
VERTEX
  8
0
 10
0.488188976378
 20
0.106299212598
 30
6.508734557717E-018
 70
80
  0
VERTEX
  8
0
 10
0.377952755906
 20
0.295275590551
 30
1.807981821588E-017
 70
80
  0
VERTEX
  8
0
 10
0.51968503937
 20
0.354330708661
 30
2.169578185906E-017
 70
80
  0
SEQEND
  0
POLYLINE
  8
0
 62
253
 66
1
 70
20
 75
6
 71
4
 72
4
 73
2
 74
2
  0
VERTEX
  8
0
 10
0.267716535433
 20
7.086614173228E-002
 30
4.339156371812E-018
 70
72
  0
VERTEX
  8
0
 10
0.51968503937
 20
0.354330708661
 30
2.169578185906E-017
 70
72
  0
VERTEX
  8
0
 10
0.267716535433
 20
0.200787401575
 30
1.229427638680E-017
 70
72
  0
VERTEX
  8
0
 10
0.425196850394
 20
0.354330708661
 30
2.169578185906E-017
 70
72
  0
VERTEX
  8
0
 10
0.267716535433
 20
7.086614173228E-002
 30
4.339156371812E-018
 70
80
  0
VERTEX
  8
0
 10
0.488188976378
 20
0.106299212598
 30
6.508734557717E-018
 70
80
  0
VERTEX
  8
0
 10
0.377952755906
 20
0.295275590551
 30
1.807981821588E-017
 70
80
  0
VERTEX
  8
0
 10
0.51968503937
 20
0.354330708661
 30
2.169578185906E-017
 70
80
  0
VERTEX
  8
0
 10
0.267716535433
 20
7.086614173228E-002
 30
-0.103937006372
 70
80
  0
VERTEX
  8
0
 10
0.488188976378
 20
0.106299212598
 30
-0.103937006372
 70
80
  0
VERTEX
  8
0
 10
0.377952755906
 20
0.295275590551
 30
-3.937007874016E-002
 70
80
  0
VERTEX
  8
0
 10
0.51968503937
 20
0.354330708661
 30
-3.937007874016E-002
 70
80
  0
VERTEX
  8
0
 10
0.267716535433
 20
0.200787401575
 30
-0.103937006372
 70
80
  0
VERTEX
  8
0
 10
0.409448818898
 20
0.200787401575
 30
-0.103937006372
 70
80
  0
VERTEX
  8
0
 10
0.362204724409
 20
0.307086614173
 30
-3.937007874016E-002
 70
80
  0
VERTEX
  8
0
 10
0.425196850394
 20
0.354330708661
 30
-3.937007874016E-002
 70
80
  0
VERTEX
  8
0
 10
0.267716535433
 20
0.200787401575
 30
1.229427638680E-017
 70
80
  0
VERTEX
  8
0
 10
0.409448818898
 20
0.200787401575
 30
1.229427638680E-017
 70
80
  0
VERTEX
  8
0
 10
0.362204724409
 20
0.307086614173
 30
1.880301094452E-017
 70
80
  0
VERTEX
  8
0
 10
0.425196850394
 20
0.354330708661
 30
2.169578185906E-017
 70
80
  0
SEQEND
  0
POLYLINE
  8
0
 62
253
 66
1
 70
20
 75
6
 71
4
 72
4
 73
2
 74
2
  0
VERTEX
  8
0
 10
-0.425196850394
 20
0.259842519685
 30
1.591024002998E-017
 70
72
  0
VERTEX
  8
0
 10
-0.314960629921
 20
0.11811023622
 30
7.231927286353E-018
 70
72
  0
VERTEX
  8
0
 10
-0.472440944882
 20
0.259842519685
 30
1.591024002998E-017
 70
72
  0
VERTEX
  8
0
 10
-0.299212598425
 20
7.086614173228E-002
 30
4.339156371812E-018
 70
72
  0
VERTEX
  8
0
 10
-0.425196850394
 20
0.259842519685
 30
1.591024002998E-017
 70
80
  0
VERTEX
  8
0
 10
-0.425196850394
 20
0.224409448819
 30
1.374066184407E-017
 70
80
  0
VERTEX
  8
0
 10
-0.393700787402
 20
0.153543307087
 30
9.401505472258E-018
 70
80
  0
VERTEX
  8
0
 10
-0.314960629921
 20
0.11811023622
 30
7.231927286353E-018
 70
80
  0
VERTEX
  8
0
 10
-0.425196850394
 20
0.259842519685
 30
4.724409448819E-002
 70
80
  0
VERTEX
  8
0
 10
-0.425196850394
 20
0.224409448819
 30
4.724409448819E-002
 70
80
  0
VERTEX
  8
0
 10
-0.393700787402
 20
0.153543307087
 30
4.724409448819E-002
 70
80
  0
VERTEX
  8
0
 10
-0.314960629921
 20
0.11811023622
 30
4.724409448819E-002
 70
80
  0
VERTEX
  8
0
 10
-0.472440944882
 20
0.259842519685
 30
4.724409448819E-002
 70
80
  0
VERTEX
  8
0
 10
-0.472440944882
 20
0.188976377953
 30
4.724409448819E-002
 70
80
  0
VERTEX
  8
0
 10
-0.417322834646
 20
0.124015748031
 30
4.724409448819E-002
 70
80
  0
VERTEX
  8
0
 10
-0.299212598425
 20
7.086614173228E-002
 30
4.724409448819E-002
 70
80
  0
VERTEX
  8
0
 10
-0.472440944882
 20
0.259842519685
 30
1.591024002998E-017
 70
80
  0
VERTEX
  8
0
 10
-0.472440944882
 20
0.188976377953
 30
1.157108365816E-017
 70
80
  0
VERTEX
  8
0
 10
-0.417322834646
 20
0.124015748031
 30
7.593523650670E-018
 70
80
  0
VERTEX
  8
0
 10
-0.299212598425
 20
7.086614173228E-002
 30
4.339156371812E-018
 70
80
  0
SEQEND
  0
POLYLINE
  8
0
 62
253
 66
1
 70
20
 75
6
 71
4
 72
4
 73
2
 74
2
  0
VERTEX
  8
0
 10
-0.472440944882
 20
0.259842519685
 30
1.591024002998E-017
 70
72
  0
VERTEX
  8
0
 10
-0.299212598425
 20
7.086614173228E-002
 30
4.339156371812E-018
 70
72
  0
VERTEX
  8
0
 10
-0.425196850394
 20
0.259842519685
 30
1.591024002998E-017
 70
72
  0
VERTEX
  8
0
 10
-0.314960629921
 20
0.11811023622
 30
7.231927286353E-018
 70
72
  0
VERTEX
  8
0
 10
-0.472440944882
 20
0.259842519685
 30
1.591024002998E-017
 70
80
  0
VERTEX
  8
0
 10
-0.472440944882
 20
0.188976377953
 30
1.157108365816E-017
 70
80
  0
VERTEX
  8
0
 10
-0.417322834646
 20
0.124015748031
 30
7.593523650670E-018
 70
80
  0
VERTEX
  8
0
 10
-0.299212598425
 20
7.086614173228E-002
 30
4.339156371812E-018
 70
80
  0
VERTEX
  8
0
 10
-0.472440944882
 20
0.259842519685
 30
-4.724409448819E-002
 70
80
  0
VERTEX
  8
0
 10
-0.472440944882
 20
0.188976377953
 30
-4.724409448819E-002
 70
80
  0
VERTEX
  8
0
 10
-0.417322834646
 20
0.124015748031
 30
-4.724409448819E-002
 70
80
  0
VERTEX
  8
0
 10
-0.299212598425
 20
7.086614173228E-002
 30
-4.724409448819E-002
 70
80
  0
VERTEX
  8
0
 10
-0.425196850394
 20
0.259842519685
 30
-4.724409448819E-002
 70
80
  0
VERTEX
  8
0
 10
-0.425196850394
 20
0.224409448819
 30
-4.724409448819E-002
 70
80
  0
VERTEX
  8
0
 10
-0.393700787402
 20
0.153543307087
 30
-4.724409448819E-002
 70
80
  0
VERTEX
  8
0
 10
-0.314960629921
 20
0.11811023622
 30
-4.724409448819E-002
 70
80
  0
VERTEX
  8
0
 10
-0.425196850394
 20
0.259842519685
 30
1.591024002998E-017
 70
80
  0
VERTEX
  8
0
 10
-0.425196850394
 20
0.224409448819
 30
1.374066184407E-017
 70
80
  0
VERTEX
  8
0
 10
-0.393700787402
 20
0.153543307087
 30
9.401505472258E-018
 70
80
  0
VERTEX
  8
0
 10
-0.314960629921
 20
0.11811023622
 30
7.231927286353E-018
 70
80
  0
SEQEND
  0
POLYLINE
  8
0
 62
253
 66
1
 70
20
 75
6
 71
4
 72
4
 73
2
 74
2
  0
VERTEX
  8
0
 10
-0.251968503937
 20
0.295275590551
 30
1.807981821588E-017
 70
72
  0
VERTEX
  8
0
 10
-0.425196850394
 20
0.259842519685
 30
1.591024002998E-017
 70
72
  0
VERTEX
  8
0
 10
-0.236220472441
 20
0.330708661417
 30
2.024939640179E-017
 70
72
  0
VERTEX
  8
0
 10
-0.472440944882
 20
0.259842519685
 30
1.591024002998E-017
 70
72
  0
VERTEX
  8
0
 10
-0.251968503937
 20
0.295275590551
 30
1.807981821588E-017
 70
80
  0
VERTEX
  8
0
 10
-0.362204724409
 20
0.295275590551
 30
1.807981821588E-017
 70
80
  0
VERTEX
  8
0
 10
-0.425196850394
 20
0.295275590551
 30
1.807981821588E-017
 70
80
  0
VERTEX
  8
0
 10
-0.425196850394
 20
0.259842519685
 30
1.591024002998E-017
 70
80
  0
VERTEX
  8
0
 10
-0.251968503937
 20
0.295275590551
 30
4.724409448819E-002
 70
80
  0
VERTEX
  8
0
 10
-0.362204724409
 20
0.295275590551
 30
4.724409448819E-002
 70
80
  0
VERTEX
  8
0
 10
-0.425196850394
 20
0.295275590551
 30
4.724409448819E-002
 70
80
  0
VERTEX
  8
0
 10
-0.425196850394
 20
0.259842519685
 30
4.724409448819E-002
 70
80
  0
VERTEX
  8
0
 10
-0.236220472441
 20
0.330708661417
 30
4.724409448819E-002
 70
80
  0
VERTEX
  8
0
 10
-0.393700787402
 20
0.330708661417
 30
4.724409448819E-002
 70
80
  0
VERTEX
  8
0
 10
-0.472440944882
 20
0.330708661417
 30
4.724409448819E-002
 70
80
  0
VERTEX
  8
0
 10
-0.472440944882
 20
0.259842519685
 30
4.724409448819E-002
 70
80
  0
VERTEX
  8
0
 10
-0.236220472441
 20
0.330708661417
 30
2.024939640179E-017
 70
80
  0
VERTEX
  8
0
 10
-0.393700787402
 20
0.330708661417
 30
2.024939640179E-017
 70
80
  0
VERTEX
  8
0
 10
-0.472440944882
 20
0.330708661417
 30
2.024939640179E-017
 70
80
  0
VERTEX
  8
0
 10
-0.472440944882
 20
0.259842519685
 30
1.591024002998E-017
 70
80
  0
SEQEND
  0
POLYLINE
  8
0
 62
253
 66
1
 70
20
 75
6
 71
4
 72
4
 73
2
 74
2
  0
VERTEX
  8
0
 10
-0.236220472441
 20
0.330708661417
 30
2.024939640179E-017
 70
72
  0
VERTEX
  8
0
 10
-0.472440944882
 20
0.259842519685
 30
1.591024002998E-017
 70
72
  0
VERTEX
  8
0
 10
-0.251968503937
 20
0.295275590551
 30
1.807981821588E-017
 70
72
  0
VERTEX
  8
0
 10
-0.425196850394
 20
0.259842519685
 30
1.591024002998E-017
 70
72
  0
VERTEX
  8
0
 10
-0.236220472441
 20
0.330708661417
 30
2.024939640179E-017
 70
80
  0
VERTEX
  8
0
 10
-0.393700787402
 20
0.330708661417
 30
2.024939640179E-017
 70
80
  0
VERTEX
  8
0
 10
-0.472440944882
 20
0.330708661417
 30
2.024939640179E-017
 70
80
  0
VERTEX
  8
0
 10
-0.472440944882
 20
0.259842519685
 30
1.591024002998E-017
 70
80
  0
VERTEX
  8
0
 10
-0.236220472441
 20
0.330708661417
 30
-4.724409448819E-002
 70
80
  0
VERTEX
  8
0
 10
-0.393700787402
 20
0.330708661417
 30
-4.724409448819E-002
 70
80
  0
VERTEX
  8
0
 10
-0.472440944882
 20
0.330708661417
 30
-4.724409448819E-002
 70
80
  0
VERTEX
  8
0
 10
-0.472440944882
 20
0.259842519685
 30
-4.724409448819E-002
 70
80
  0
VERTEX
  8
0
 10
-0.251968503937
 20
0.295275590551
 30
-4.724409448819E-002
 70
80
  0
VERTEX
  8
0
 10
-0.362204724409
 20
0.295275590551
 30
-4.724409448819E-002
 70
80
  0
VERTEX
  8
0
 10
-0.425196850394
 20
0.295275590551
 30
-4.724409448819E-002
 70
80
  0
VERTEX
  8
0
 10
-0.425196850394
 20
0.259842519685
 30
-4.724409448819E-002
 70
80
  0
VERTEX
  8
0
 10
-0.251968503937
 20
0.295275590551
 30
1.807981821588E-017
 70
80
  0
VERTEX
  8
0
 10
-0.362204724409
 20
0.295275590551
 30
1.807981821588E-017
 70
80
  0
VERTEX
  8
0
 10
-0.425196850394
 20
0.295275590551
 30
1.807981821588E-017
 70
80
  0
VERTEX
  8
0
 10
-0.425196850394
 20
0.259842519685
 30
1.591024002998E-017
 70
80
  0
SEQEND
  0
POLYLINE
  8
0
 62
253
 66
1
 70
20
 75
6
 71
4
 72
4
 73
2
 74
2
  0
VERTEX
  8
0
 10
0.220472440945
 20
0.354330708661
 30
2.169578185906E-017
 70
72
  0
VERTEX
  8
0
 10
0.236220472441
 20
0.354330708661
 30
2.169578185906E-017
 70
72
  0
VERTEX
  8
0
 10
0.0
 20
0.354330708661
 30
0.220472440945
 70
72
  0
VERTEX
  8
0
 10
0.0
 20
0.354330708661
 30
0.236220472441
 70
72
  0
VERTEX
  8
0
 10
0.220472440945
 20
0.354330708661
 30
2.169578185906E-017
 70
80
  0
VERTEX
  8
0
 10
0.21062992126
 20
0.375
 30
2.296136913417E-017
 70
80
  0
VERTEX
  8
0
 10
0.226377952756
 20
0.375
 30
2.296136913417E-017
 70
80
  0
VERTEX
  8
0
 10
0.236220472441
 20
0.354330708661
 30
2.169578185906E-017
 70
80
  0
VERTEX
  8
0
 10
0.220472440945
 20
0.354330708661
 30
0.123464569332
 70
80
  0
VERTEX
  8
0
 10
0.21062992126
 20
0.375
 30
0.117952752301
 70
80
  0
VERTEX
  8
0
 10
0.226377952756
 20
0.375
 30
0.126771656547
 70
80
  0
VERTEX
  8
0
 10
0.236220472441
 20
0.354330708661
 30
0.13228345856
 70
80
  0
VERTEX
  8
0
 10
0.123464569332
 20
0.354330708661
 30
0.220472440945
 70
80
  0
VERTEX
  8
0
 10
0.117952752301
 20
0.375
 30
0.21062992126
 70
80
  0
VERTEX
  8
0
 10
0.126771656547
 20
0.375
 30
0.226377952756
 70
80
  0
VERTEX
  8
0
 10
0.13228345856
 20
0.354330708661
 30
0.236220472441
 70
80
  0
VERTEX
  8
0
 10
0.0
 20
0.354330708661
 30
0.220472440945
 70
80
  0
VERTEX
  8
0
 10
0.0
 20
0.375
 30
0.21062992126
 70
80
  0
VERTEX
  8
0
 10
0.0
 20
0.375
 30
0.226377952756
 70
80
  0
VERTEX
  8
0
 10
0.0
 20
0.354330708661
 30
0.236220472441
 70
80
  0
SEQEND
  0
POLYLINE
  8
0
 62
253
 66
1
 70
20
 75
6
 71
4
 72
4
 73
2
 74
2
  0
VERTEX
  8
0
 10
0.0
 20
0.354330708661
 30
-0.220472440945
 70
72
  0
VERTEX
  8
0
 10
0.0
 20
0.354330708661
 30
-0.236220472441
 70
72
  0
VERTEX
  8
0
 10
0.220472440945
 20
0.354330708661
 30
2.169578185906E-017
 70
72
  0
VERTEX
  8
0
 10
0.236220472441
 20
0.354330708661
 30
2.169578185906E-017
 70
72
  0
VERTEX
  8
0
 10
0.0
 20
0.354330708661
 30
-0.220472440945
 70
80
  0
VERTEX
  8
0
 10
0.0
 20
0.375
 30
-0.21062992126
 70
80
  0
VERTEX
  8
0
 10
0.0
 20
0.375
 30
-0.226377952756
 70
80
  0
VERTEX
  8
0
 10
0.0
 20
0.354330708661
 30
-0.236220472441
 70
80
  0
VERTEX
  8
0
 10
0.123464569332
 20
0.354330708661
 30
-0.220472440945
 70
80
  0
VERTEX
  8
0
 10
0.117952752301
 20
0.375
 30
-0.21062992126
 70
80
  0
VERTEX
  8
0
 10
0.126771656547
 20
0.375
 30
-0.226377952756
 70
80
  0
VERTEX
  8
0
 10
0.13228345856
 20
0.354330708661
 30
-0.236220472441
 70
80
  0
VERTEX
  8
0
 10
0.220472440945
 20
0.354330708661
 30
-0.123464569332
 70
80
  0
VERTEX
  8
0
 10
0.21062992126
 20
0.375
 30
-0.117952752301
 70
80
  0
VERTEX
  8
0
 10
0.226377952756
 20
0.375
 30
-0.126771656547
 70
80
  0
VERTEX
  8
0
 10
0.236220472441
 20
0.354330708661
 30
-0.13228345856
 70
80
  0
VERTEX
  8
0
 10
0.220472440945
 20
0.354330708661
 30
2.169578185906E-017
 70
80
  0
VERTEX
  8
0
 10
0.21062992126
 20
0.375
 30
2.296136913417E-017
 70
80
  0
VERTEX
  8
0
 10
0.226377952756
 20
0.375
 30
2.296136913417E-017
 70
80
  0
VERTEX
  8
0
 10
0.236220472441
 20
0.354330708661
 30
2.169578185906E-017
 70
80
  0
SEQEND
  0
POLYLINE
  8
0
 62
253
 66
1
 70
20
 75
6
 71
4
 72
4
 73
2
 74
2
  0
VERTEX
  8
0
 10
0.0
 20
0.354330708661
 30
0.220472440945
 70
72
  0
VERTEX
  8
0
 10
0.0
 20
0.354330708661
 30
0.236220472441
 70
72
  0
VERTEX
  8
0
 10
-0.220472440945
 20
0.354330708661
 30
2.169578185906E-017
 70
72
  0
VERTEX
  8
0
 10
-0.236220472441
 20
0.354330708661
 30
2.169578185906E-017
 70
72
  0
VERTEX
  8
0
 10
0.0
 20
0.354330708661
 30
0.220472440945
 70
80
  0
VERTEX
  8
0
 10
0.0
 20
0.375
 30
0.21062992126
 70
80
  0
VERTEX
  8
0
 10
0.0
 20
0.375
 30
0.226377952756
 70
80
  0
VERTEX
  8
0
 10
0.0
 20
0.354330708661
 30
0.236220472441
 70
80
  0
VERTEX
  8
0
 10
-0.123464569332
 20
0.354330708661
 30
0.220472440945
 70
80
  0
VERTEX
  8
0
 10
-0.117952752301
 20
0.375
 30
0.21062992126
 70
80
  0
VERTEX
  8
0
 10
-0.126771656547
 20
0.375
 30
0.226377952756
 70
80
  0
VERTEX
  8
0
 10
-0.13228345856
 20
0.354330708661
 30
0.236220472441
 70
80
  0
VERTEX
  8
0
 10
-0.220472440945
 20
0.354330708661
 30
0.123464569332
 70
80
  0
VERTEX
  8
0
 10
-0.21062992126
 20
0.375
 30
0.117952752301
 70
80
  0
VERTEX
  8
0
 10
-0.226377952756
 20
0.375
 30
0.126771656547
 70
80
  0
VERTEX
  8
0
 10
-0.236220472441
 20
0.354330708661
 30
0.13228345856
 70
80
  0
VERTEX
  8
0
 10
-0.220472440945
 20
0.354330708661
 30
2.169578185906E-017
 70
80
  0
VERTEX
  8
0
 10
-0.21062992126
 20
0.375
 30
2.296136913417E-017
 70
80
  0
VERTEX
  8
0
 10
-0.226377952756
 20
0.375
 30
2.296136913417E-017
 70
80
  0
VERTEX
  8
0
 10
-0.236220472441
 20
0.354330708661
 30
2.169578185906E-017
 70
80
  0
SEQEND
  0
POLYLINE
  8
0
 62
253
 66
1
 70
20
 75
6
 71
4
 72
4
 73
2
 74
2
  0
VERTEX
  8
0
 10
-0.220472440945
 20
0.354330708661
 30
2.169578185906E-017
 70
72
  0
VERTEX
  8
0
 10
-0.236220472441
 20
0.354330708661
 30
2.169578185906E-017
 70
72
  0
VERTEX
  8
0
 10
0.0
 20
0.354330708661
 30
-0.220472440945
 70
72
  0
VERTEX
  8
0
 10
0.0
 20
0.354330708661
 30
-0.236220472441
 70
72
  0
VERTEX
  8
0
 10
-0.220472440945
 20
0.354330708661
 30
2.169578185906E-017
 70
80
  0
VERTEX
  8
0
 10
-0.21062992126
 20
0.375
 30
2.296136913417E-017
 70
80
  0
VERTEX
  8
0
 10
-0.226377952756
 20
0.375
 30
2.296136913417E-017
 70
80
  0
VERTEX
  8
0
 10
-0.236220472441
 20
0.354330708661
 30
2.169578185906E-017
 70
80
  0
VERTEX
  8
0
 10
-0.220472440945
 20
0.354330708661
 30
-0.123464569332
 70
80
  0
VERTEX
  8
0
 10
-0.21062992126
 20
0.375
 30
-0.117952752301
 70
80
  0
VERTEX
  8
0
 10
-0.226377952756
 20
0.375
 30
-0.126771656547
 70
80
  0
VERTEX
  8
0
 10
-0.236220472441
 20
0.354330708661
 30
-0.13228345856
 70
80
  0
VERTEX
  8
0
 10
-0.123464569332
 20
0.354330708661
 30
-0.220472440945
 70
80
  0
VERTEX
  8
0
 10
-0.117952752301
 20
0.375
 30
-0.21062992126
 70
80
  0
VERTEX
  8
0
 10
-0.126771656547
 20
0.375
 30
-0.226377952756
 70
80
  0
VERTEX
  8
0
 10
-0.13228345856
 20
0.354330708661
 30
-0.236220472441
 70
80
  0
VERTEX
  8
0
 10
0.0
 20
0.354330708661
 30
-0.220472440945
 70
80
  0
VERTEX
  8
0
 10
0.0
 20
0.375
 30
-0.21062992126
 70
80
  0
VERTEX
  8
0
 10
0.0
 20
0.375
 30
-0.226377952756
 70
80
  0
VERTEX
  8
0
 10
0.0
 20
0.354330708661
 30
-0.236220472441
 70
80
  0
SEQEND
  0
POLYLINE
  8
0
 62
253
 66
1
 70
20
 75
6
 71
4
 72
4
 73
2
 74
2
  0
VERTEX
  8
0
 10
0.236220472441
 20
0.354330708661
 30
2.169578185906E-017
 70
72
  0
VERTEX
  8
0
 10
0.314960629921
 20
0.11811023622
 30
7.231927286353E-018
 70
72
  0
VERTEX
  8
0
 10
0.0
 20
0.354330708661
 30
0.236220472441
 70
72
  0
VERTEX
  8
0
 10
0.0
 20
0.11811023622
 30
0.314960629921
 70
72
  0
VERTEX
  8
0
 10
0.236220472441
 20
0.354330708661
 30
2.169578185906E-017
 70
80
  0
VERTEX
  8
0
 10
0.275590551181
 20
0.271653543307
 30
1.663343275861E-017
 70
80
  0
VERTEX
  8
0
 10
0.314960629921
 20
0.188976377953
 30
1.157108365816E-017
 70
80
  0
VERTEX
  8
0
 10
0.314960629921
 20
0.11811023622
 30
7.231927286353E-018
 70
80
  0
VERTEX
  8
0
 10
0.236220472441
 20
0.354330708661
 30
0.13228345856
 70
80
  0
VERTEX
  8
0
 10
0.275590551181
 20
0.271653543307
 30
0.154330711665
 70
80
  0
VERTEX
  8
0
 10
0.314960629921
 20
0.188976377953
 30
0.176377949752
 70
80
  0
VERTEX
  8
0
 10
0.314960629921
 20
0.11811023622
 30
0.176377949752
 70
80
  0
VERTEX
  8
0
 10
0.13228345856
 20
0.354330708661
 30
0.236220472441
 70
80
  0
VERTEX
  8
0
 10
0.154330711665
 20
0.271653543307
 30
0.275590551181
 70
80
  0
VERTEX
  8
0
 10
0.176377949752
 20
0.188976377953
 30
0.314960629921
 70
80
  0
VERTEX
  8
0
 10
0.176377949752
 20
0.11811023622
 30
0.314960629921
 70
80
  0
VERTEX
  8
0
 10
0.0
 20
0.354330708661
 30
0.236220472441
 70
80
  0
VERTEX
  8
0
 10
0.0
 20
0.271653543307
 30
0.275590551181
 70
80
  0
VERTEX
  8
0
 10
0.0
 20
0.188976377953
 30
0.314960629921
 70
80
  0
VERTEX
  8
0
 10
0.0
 20
0.11811023622
 30
0.314960629921
 70
80
  0
SEQEND
  0
POLYLINE
  8
0
 62
253
 66
1
 70
20
 75
6
 71
4
 72
4
 73
2
 74
2
  0
VERTEX
  8
0
 10
0.0
 20
0.354330708661
 30
-0.236220472441
 70
72
  0
VERTEX
  8
0
 10
0.0
 20
0.11811023622
 30
-0.314960629921
 70
72
  0
VERTEX
  8
0
 10
0.236220472441
 20
0.354330708661
 30
2.169578185906E-017
 70
72
  0
VERTEX
  8
0
 10
0.314960629921
 20
0.11811023622
 30
7.231927286353E-018
 70
72
  0
VERTEX
  8
0
 10
0.0
 20
0.354330708661
 30
-0.236220472441
 70
80
  0
VERTEX
  8
0
 10
0.0
 20
0.271653543307
 30
-0.275590551181
 70
80
  0
VERTEX
  8
0
 10
0.0
 20
0.188976377953
 30
-0.314960629921
 70
80
  0
VERTEX
  8
0
 10
0.0
 20
0.11811023622
 30
-0.314960629921
 70
80
  0
VERTEX
  8
0
 10
0.13228345856
 20
0.354330708661
 30
-0.236220472441
 70
80
  0
VERTEX
  8
0
 10
0.154330711665
 20
0.271653543307
 30
-0.275590551181
 70
80
  0
VERTEX
  8
0
 10
0.176377949752
 20
0.188976377953
 30
-0.314960629921
 70
80
  0
VERTEX
  8
0
 10
0.176377949752
 20
0.11811023622
 30
-0.314960629921
 70
80
  0
VERTEX
  8
0
 10
0.236220472441
 20
0.354330708661
 30
-0.13228345856
 70
80
  0
VERTEX
  8
0
 10
0.275590551181
 20
0.271653543307
 30
-0.154330711665
 70
80
  0
VERTEX
  8
0
 10
0.314960629921
 20
0.188976377953
 30
-0.176377949752
 70
80
  0
VERTEX
  8
0
 10
0.314960629921
 20
0.11811023622
 30
-0.176377949752
 70
80
  0
VERTEX
  8
0
 10
0.236220472441
 20
0.354330708661
 30
2.169578185906E-017
 70
80
  0
VERTEX
  8
0
 10
0.275590551181
 20
0.271653543307
 30
1.663343275861E-017
 70
80
  0
VERTEX
  8
0
 10
0.314960629921
 20
0.188976377953
 30
1.157108365816E-017
 70
80
  0
VERTEX
  8
0
 10
0.314960629921
 20
0.11811023622
 30
7.231927286353E-018
 70
80
  0
SEQEND
  0
POLYLINE
  8
0
 62
253
 66
1
 70
20
 75
6
 71
4
 72
4
 73
2
 74
2
  0
VERTEX
  8
0
 10
0.0
 20
0.354330708661
 30
0.236220472441
 70
72
  0
VERTEX
  8
0
 10
0.0
 20
0.11811023622
 30
0.314960629921
 70
72
  0
VERTEX
  8
0
 10
-0.236220472441
 20
0.354330708661
 30
2.169578185906E-017
 70
72
  0
VERTEX
  8
0
 10
-0.314960629921
 20
0.11811023622
 30
7.231927286353E-018
 70
72
  0
VERTEX
  8
0
 10
0.0
 20
0.354330708661
 30
0.236220472441
 70
80
  0
VERTEX
  8
0
 10
0.0
 20
0.271653543307
 30
0.275590551181
 70
80
  0
VERTEX
  8
0
 10
0.0
 20
0.188976377953
 30
0.314960629921
 70
80
  0
VERTEX
  8
0
 10
0.0
 20
0.11811023622
 30
0.314960629921
 70
80
  0
VERTEX
  8
0
 10
-0.13228345856
 20
0.354330708661
 30
0.236220472441
 70
80
  0
VERTEX
  8
0
 10
-0.154330711665
 20
0.271653543307
 30
0.275590551181
 70
80
  0
VERTEX
  8
0
 10
-0.176377949752
 20
0.188976377953
 30
0.314960629921
 70
80
  0
VERTEX
  8
0
 10
-0.176377949752
 20
0.11811023622
 30
0.314960629921
 70
80
  0
VERTEX
  8
0
 10
-0.236220472441
 20
0.354330708661
 30
0.13228345856
 70
80
  0
VERTEX
  8
0
 10
-0.275590551181
 20
0.271653543307
 30
0.154330711665
 70
80
  0
VERTEX
  8
0
 10
-0.314960629921
 20
0.188976377953
 30
0.176377949752
 70
80
  0
VERTEX
  8
0
 10
-0.314960629921
 20
0.11811023622
 30
0.176377949752
 70
80
  0
VERTEX
  8
0
 10
-0.236220472441
 20
0.354330708661
 30
2.169578185906E-017
 70
80
  0
VERTEX
  8
0
 10
-0.275590551181
 20
0.271653543307
 30
1.663343275861E-017
 70
80
  0
VERTEX
  8
0
 10
-0.314960629921
 20
0.188976377953
 30
1.157108365816E-017
 70
80
  0
VERTEX
  8
0
 10
-0.314960629921
 20
0.11811023622
 30
7.231927286353E-018
 70
80
  0
SEQEND
  0
POLYLINE
  8
0
 62
253
 66
1
 70
20
 75
6
 71
4
 72
4
 73
2
 74
2
  0
VERTEX
  8
0
 10
-0.236220472441
 20
0.354330708661
 30
2.169578185906E-017
 70
72
  0
VERTEX
  8
0
 10
-0.314960629921
 20
0.11811023622
 30
7.231927286353E-018
 70
72
  0
VERTEX
  8
0
 10
0.0
 20
0.354330708661
 30
-0.236220472441
 70
72
  0
VERTEX
  8
0
 10
0.0
 20
0.11811023622
 30
-0.314960629921
 70
72
  0
VERTEX
  8
0
 10
-0.236220472441
 20
0.354330708661
 30
2.169578185906E-017
 70
80
  0
VERTEX
  8
0
 10
-0.275590551181
 20
0.271653543307
 30
1.663343275861E-017
 70
80
  0
VERTEX
  8
0
 10
-0.314960629921
 20
0.188976377953
 30
1.157108365816E-017
 70
80
  0
VERTEX
  8
0
 10
-0.314960629921
 20
0.11811023622
 30
7.231927286353E-018
 70
80
  0
VERTEX
  8
0
 10
-0.236220472441
 20
0.354330708661
 30
-0.13228345856
 70
80
  0
VERTEX
  8
0
 10
-0.275590551181
 20
0.271653543307
 30
-0.154330711665
 70
80
  0
VERTEX
  8
0
 10
-0.314960629921
 20
0.188976377953
 30
-0.176377949752
 70
80
  0
VERTEX
  8
0
 10
-0.314960629921
 20
0.11811023622
 30
-0.176377949752
 70
80
  0
VERTEX
  8
0
 10
-0.13228345856
 20
0.354330708661
 30
-0.236220472441
 70
80
  0
VERTEX
  8
0
 10
-0.154330711665
 20
0.271653543307
 30
-0.275590551181
 70
80
  0
VERTEX
  8
0
 10
-0.176377949752
 20
0.188976377953
 30
-0.314960629921
 70
80
  0
VERTEX
  8
0
 10
-0.176377949752
 20
0.11811023622
 30
-0.314960629921
 70
80
  0
VERTEX
  8
0
 10
0.0
 20
0.354330708661
 30
-0.236220472441
 70
80
  0
VERTEX
  8
0
 10
0.0
 20
0.271653543307
 30
-0.275590551181
 70
80
  0
VERTEX
  8
0
 10
0.0
 20
0.188976377953
 30
-0.314960629921
 70
80
  0
VERTEX
  8
0
 10
0.0
 20
0.11811023622
 30
-0.314960629921
 70
80
  0
SEQEND
  0
POLYLINE
  8
0
 62
253
 66
1
 70
20
 75
6
 71
4
 72
4
 73
2
 74
2
  0
VERTEX
  8
0
 10
0.314960629921
 20
0.11811023622
 30
7.231927286353E-018
 70
72
  0
VERTEX
  8
0
 10
0.236220472441
 20
0.0
 30
0.0
 70
72
  0
VERTEX
  8
0
 10
0.0
 20
0.11811023622
 30
0.314960629921
 70
72
  0
VERTEX
  8
0
 10
0.0
 20
-1.446385457271E-017
 30
0.236220472441
 70
72
  0
VERTEX
  8
0
 10
0.314960629921
 20
0.11811023622
 30
7.231927286353E-018
 70
80
  0
VERTEX
  8
0
 10
0.314960629921
 20
4.724409448819E-002
 30
2.892770914541E-018
 70
80
  0
VERTEX
  8
0
 10
0.236220472441
 20
1.181102362205E-002
 30
7.231927286353E-019
 70
80
  0
VERTEX
  8
0
 10
0.236220472441
 20
0.0
 30
0.0
 70
80
  0
VERTEX
  8
0
 10
0.314960629921
 20
0.11811023622
 30
0.176377949752
 70
80
  0
VERTEX
  8
0
 10
0.314960629921
 20
4.724409448819E-002
 30
0.176377949752
 70
80
  0
VERTEX
  8
0
 10
0.236220472441
 20
1.181102362205E-002
 30
0.13228345856
 70
80
  0
VERTEX
  8
0
 10
0.236220472441
 20
-8.099758192880E-018
 30
0.13228345856
 70
80
  0
VERTEX
  8
0
 10
0.176377949752
 20
0.11811023622
 30
0.314960629921
 70
80
  0
VERTEX
  8
0
 10
0.176377949752
 20
4.724409448819E-002
 30
0.314960629921
 70
80
  0
VERTEX
  8
0
 10
0.13228345856
 20
1.181102362205E-002
 30
0.236220472441
 70
80
  0
VERTEX
  8
0
 10
0.13228345856
 20
-1.446385457271E-017
 30
0.236220472441
 70
80
  0
VERTEX
  8
0
 10
0.0
 20
0.11811023622
 30
0.314960629921
 70
80
  0
VERTEX
  8
0
 10
0.0
 20
4.724409448819E-002
 30
0.314960629921
 70
80
  0
VERTEX
  8
0
 10
0.0
 20
1.181102362205E-002
 30
0.236220472441
 70
80
  0
VERTEX
  8
0
 10
0.0
 20
-1.446385457271E-017
 30
0.236220472441
 70
80
  0
SEQEND
  0
POLYLINE
  8
0
 62
253
 66
1
 70
20
 75
6
 71
4
 72
4
 73
2
 74
2
  0
VERTEX
  8
0
 10
0.0
 20
0.11811023622
 30
-0.314960629921
 70
72
  0
VERTEX
  8
0
 10
0.0
 20
1.446385457271E-017
 30
-0.236220472441
 70
72
  0
VERTEX
  8
0
 10
0.314960629921
 20
0.11811023622
 30
7.231927286353E-018
 70
72
  0
VERTEX
  8
0
 10
0.236220472441
 20
0.0
 30
0.0
 70
72
  0
VERTEX
  8
0
 10
0.0
 20
0.11811023622
 30
-0.314960629921
 70
80
  0
VERTEX
  8
0
 10
0.0
 20
4.724409448819E-002
 30
-0.314960629921
 70
80
  0
VERTEX
  8
0
 10
0.0
 20
1.181102362205E-002
 30
-0.236220472441
 70
80
  0
VERTEX
  8
0
 10
0.0
 20
1.446385457271E-017
 30
-0.236220472441
 70
80
  0
VERTEX
  8
0
 10
0.176377949752
 20
0.11811023622
 30
-0.314960629921
 70
80
  0
VERTEX
  8
0
 10
0.176377949752
 20
4.724409448819E-002
 30
-0.314960629921
 70
80
  0
VERTEX
  8
0
 10
0.13228345856
 20
1.181102362205E-002
 30
-0.236220472441
 70
80
  0
VERTEX
  8
0
 10
0.13228345856
 20
1.446385457271E-017
 30
-0.236220472441
 70
80
  0
VERTEX
  8
0
 10
0.314960629921
 20
0.11811023622
 30
-0.176377949752
 70
80
  0
VERTEX
  8
0
 10
0.314960629921
 20
4.724409448819E-002
 30
-0.176377949752
 70
80
  0
VERTEX
  8
0
 10
0.236220472441
 20
1.181102362205E-002
 30
-0.13228345856
 70
80
  0
VERTEX
  8
0
 10
0.236220472441
 20
8.099758192880E-018
 30
-0.13228345856
 70
80
  0
VERTEX
  8
0
 10
0.314960629921
 20
0.11811023622
 30
7.231927286353E-018
 70
80
  0
VERTEX
  8
0
 10
0.314960629921
 20
4.724409448819E-002
 30
2.892770914541E-018
 70
80
  0
VERTEX
  8
0
 10
0.236220472441
 20
1.181102362205E-002
 30
7.231927286353E-019
 70
80
  0
VERTEX
  8
0
 10
0.236220472441
 20
0.0
 30
0.0
 70
80
  0
SEQEND
  0
POLYLINE
  8
0
 62
253
 66
1
 70
20
 75
6
 71
4
 72
4
 73
2
 74
2
  0
VERTEX
  8
0
 10
0.0
 20
0.11811023622
 30
0.314960629921
 70
72
  0
VERTEX
  8
0
 10
0.0
 20
-1.446385457271E-017
 30
0.236220472441
 70
72
  0
VERTEX
  8
0
 10
-0.314960629921
 20
0.11811023622
 30
7.231927286353E-018
 70
72
  0
VERTEX
  8
0
 10
-0.236220472441
 20
0.0
 30
0.0
 70
72
  0
VERTEX
  8
0
 10
0.0
 20
0.11811023622
 30
0.314960629921
 70
80
  0
VERTEX
  8
0
 10
0.0
 20
4.724409448819E-002
 30
0.314960629921
 70
80
  0
VERTEX
  8
0
 10
0.0
 20
1.181102362205E-002
 30
0.236220472441
 70
80
  0
VERTEX
  8
0
 10
0.0
 20
-1.446385457271E-017
 30
0.236220472441
 70
80
  0
VERTEX
  8
0
 10
-0.176377949752
 20
0.11811023622
 30
0.314960629921
 70
80
  0
VERTEX
  8
0
 10
-0.176377949752
 20
4.724409448819E-002
 30
0.314960629921
 70
80
  0
VERTEX
  8
0
 10
-0.13228345856
 20
1.181102362205E-002
 30
0.236220472441
 70
80
  0
VERTEX
  8
0
 10
-0.13228345856
 20
-1.446385457271E-017
 30
0.236220472441
 70
80
  0
VERTEX
  8
0
 10
-0.314960629921
 20
0.11811023622
 30
0.176377949752
 70
80
  0
VERTEX
  8
0
 10
-0.314960629921
 20
4.724409448819E-002
 30
0.176377949752
 70
80
  0
VERTEX
  8
0
 10
-0.236220472441
 20
1.181102362205E-002
 30
0.13228345856
 70
80
  0
VERTEX
  8
0
 10
-0.236220472441
 20
-8.099758192880E-018
 30
0.13228345856
 70
80
  0
VERTEX
  8
0
 10
-0.314960629921
 20
0.11811023622
 30
7.231927286353E-018
 70
80
  0
VERTEX
  8
0
 10
-0.314960629921
 20
4.724409448819E-002
 30
2.892770914541E-018
 70
80
  0
VERTEX
  8
0
 10
-0.236220472441
 20
1.181102362205E-002
 30
7.231927286353E-019
 70
80
  0
VERTEX
  8
0
 10
-0.236220472441
 20
0.0
 30
0.0
 70
80
  0
SEQEND
  0
POLYLINE
  8
0
 62
253
 66
1
 70
20
 75
6
 71
4
 72
4
 73
2
 74
2
  0
VERTEX
  8
0
 10
-0.314960629921
 20
0.11811023622
 30
7.231927286353E-018
 70
72
  0
VERTEX
  8
0
 10
-0.236220472441
 20
0.0
 30
0.0
 70
72
  0
VERTEX
  8
0
 10
0.0
 20
0.11811023622
 30
-0.314960629921
 70
72
  0
VERTEX
  8
0
 10
0.0
 20
1.446385457271E-017
 30
-0.236220472441
 70
72
  0
VERTEX
  8
0
 10
-0.314960629921
 20
0.11811023622
 30
7.231927286353E-018
 70
80
  0
VERTEX
  8
0
 10
-0.314960629921
 20
4.724409448819E-002
 30
2.892770914541E-018
 70
80
  0
VERTEX
  8
0
 10
-0.236220472441
 20
1.181102362205E-002
 30
7.231927286353E-019
 70
80
  0
VERTEX
  8
0
 10
-0.236220472441
 20
0.0
 30
0.0
 70
80
  0
VERTEX
  8
0
 10
-0.314960629921
 20
0.11811023622
 30
-0.176377949752
 70
80
  0
VERTEX
  8
0
 10
-0.314960629921
 20
4.724409448819E-002
 30
-0.176377949752
 70
80
  0
VERTEX
  8
0
 10
-0.236220472441
 20
1.181102362205E-002
 30
-0.13228345856
 70
80
  0
VERTEX
  8
0
 10
-0.236220472441
 20
8.099758192880E-018
 30
-0.13228345856
 70
80
  0
VERTEX
  8
0
 10
-0.176377949752
 20
0.11811023622
 30
-0.314960629921
 70
80
  0
VERTEX
  8
0
 10
-0.176377949752
 20
4.724409448819E-002
 30
-0.314960629921
 70
80
  0
VERTEX
  8
0
 10
-0.13228345856
 20
1.181102362205E-002
 30
-0.236220472441
 70
80
  0
VERTEX
  8
0
 10
-0.13228345856
 20
1.446385457271E-017
 30
-0.236220472441
 70
80
  0
VERTEX
  8
0
 10
0.0
 20
0.11811023622
 30
-0.314960629921
 70
80
  0
VERTEX
  8
0
 10
0.0
 20
4.724409448819E-002
 30
-0.314960629921
 70
80
  0
VERTEX
  8
0
 10
0.0
 20
1.181102362205E-002
 30
-0.236220472441
 70
80
  0
VERTEX
  8
0
 10
0.0
 20
1.446385457271E-017
 30
-0.236220472441
 70
80
  0
SEQEND
  0
POLYLINE
  8
0
 66
1
 70
12
 75
6
  0
VERTEX
  8
0
 10
2.352377233294E-017
 20
1.446385457271E-017
 30
-0.236220472441
 70
48
  0
VERTEX
  8
0
 10
-6.614172927977E-002
 20
1.446385457271E-017
 30
-0.236220472441
 70
48
  0
VERTEX
  8
0
 10
-0.12519684739
 20
1.287283047775E-017
 30
-0.210236218971
 70
48
  0
VERTEX
  8
0
 10
-0.16771653318
 20
1.026933660868E-017
 30
-0.16771653318
 70
48
  0
VERTEX
  8
0
 10
-0.210236218971
 20
7.665842739616E-018
 30
-0.12519684739
 70
48
  0
VERTEX
  8
0
 10
-0.236220472441
 20
4.049879096440E-018
 30
-6.614172927977E-002
 70
48
  0
VERTEX
  8
0
 10
-0.236220472441
 20
1.440368053240E-033
 30
-2.352377233294E-017
 70
48
  0
VERTEX
  8
0
 10
2.352377233294E-017
 20
1.446385457271E-017
 30
-0.236220472441
 70
40
  0
VERTEX
  8
0
 10
-3.639502198835E-002
 20
1.429986496275E-017
 30
-0.233542230417
 70
40
  0
VERTEX
  8
0
 10
-7.092150367474E-002
 20
1.382315098316E-017
 30
-0.225756643186
 70
40
  0
VERTEX
  8
0
 10
-0.103205736801
 20
1.305659490930E-017
 30
-0.213237419005
 70
40
  0
VERTEX
  8
0
 10
-0.132874013108
 20
1.202307901657E-017
 30
-0.196358266133
 70
40
  0
VERTEX
  8
0
 10
-0.159552624338
 20
1.074548558035E-017
 30
-0.175492892827
 70
40
  0
VERTEX
  8
0
 10
-0.182867862233
 20
9.246696876029E-018
 30
-0.151015007348
 70
40
  0
VERTEX
  8
0
 10
-0.202446018534
 20
7.549595178985E-018
 30
-0.123298317952
 70
40
  0
VERTEX
  8
0
 10
-0.217913384982
 20
5.677062764606E-018
 30
-9.271653289870E-002
 70
40
  0
VERTEX
  8
0
 10
-0.22889625332
 20
3.651981908278E-018
 30
-5.964336044606E-002
 70
40
  0
VERTEX
  8
0
 10
-0.235020915288
 20
1.497234885385E-018
 30
-2.445250885253E-002
 70
40
  0
VERTEX
  8
0
 10
-0.236220472441
 20
1.440368053240E-033
 30
-2.352377233294E-017
 70
40
  0
SEQEND
  0
POLYLINE
  8
0
 62
253
 66
1
 70
20
 75
6
 71
4
 72
4
 73
2
 74
2
  0
VERTEX
  8
0
 10
-0.236220472441
 20
-8.856264105249E-034
 30
-2.0E-016
 70
72
  0
VERTEX
  8
0
 10
-2.0E-016
 20
-1.446385457271E-017
 30
0.236220472441
 70
72
  0
VERTEX
  8
0
 10
0.0
 20
0.0
 30
0.0
 70
72
  0
VERTEX
  8
0
 10
0.0
 20
0.0
 30
0.0
 70
72
  0
VERTEX
  8
0
 10
-0.236220472441
 20
-8.856264105249E-034
 30
-2.0E-016
 70
80
  0
VERTEX
  8
0
 10
-0.236220472441
 20
-8.099758192880E-018
 30
0.13228345856
 70
80
  0
VERTEX
  8
0
 10
-0.13228345856
 20
-1.446385457271E-017
 30
0.236220472441
 70
80
  0
VERTEX
  8
0
 10
-2.0E-016
 20
-1.446385457271E-017
 30
0.236220472441
 70
80
  0
VERTEX
  8
0
 10
-0.157480314961
 20
-5.904176070166E-034
 30
-1.0E-016
 70
80
  0
VERTEX
  8
0
 10
-0.157480314961
 20
-4.821284857569E-018
 30
7.874015748032E-002
 70
80
  0
VERTEX
  8
0
 10
-7.874015748034E-002
 20
-9.642569715137E-018
 30
0.157480314961
 70
80
  0
VERTEX
  8
0
 10
-1.0E-016
 20
-9.642569715137E-018
 30
0.157480314961
 70
80
  0
VERTEX
  8
0
 10
-7.874015748031E-002
 20
-2.952088035083E-034
 30
-7.231927286353E-017
 70
80
  0
VERTEX
  8
0
 10
-7.874015748032E-002
 20
-2.410642428784E-018
 30
3.937007874016E-002
 70
80
  0
VERTEX
  8
0
 10
-3.937007874017E-002
 20
-4.821284857568E-018
 30
7.874015748031E-002
 70
80
  0
VERTEX
  8
0
 10
-7.231927286353E-017
 20
-4.821284857568E-018
 30
7.874015748031E-002
 70
80
  0
VERTEX
  8
0
 10
0.0
 20
0.0
 30
0.0
 70
80
  0
VERTEX
  8
0
 10
0.0
 20
0.0
 30
0.0
 70
80
  0
VERTEX
  8
0
 10
0.0
 20
0.0
 30
0.0
 70
80
  0
VERTEX
  8
0
 10
0.0
 20
0.0
 30
0.0
 70
80
  0
SEQEND
  0
POLYLINE
  8
0
 62
253
 66
1
 70
20
 75
6
 71
4
 72
4
 73
2
 74
2
  0
VERTEX
  8
0
 10
-2.0E-016
 20
-8.856264105249E-034
 30
0.236220472441
 70
72
  0
VERTEX
  8
0
 10
0.236220472441
 20
-1.446385457271E-017
 30
2.0E-016
 70
72
  0
VERTEX
  8
0
 10
0.0
 20
0.0
 30
0.0
 70
72
  0
VERTEX
  8
0
 10
0.0
 20
0.0
 30
0.0
 70
72
  0
VERTEX
  8
0
 10
-2.0E-016
 20
-8.856264105249E-034
 30
0.236220472441
 70
80
  0
VERTEX
  8
0
 10
0.13228345856
 20
-8.099758192880E-018
 30
0.236220472441
 70
80
  0
VERTEX
  8
0
 10
0.236220472441
 20
-1.446385457271E-017
 30
0.13228345856
 70
80
  0
VERTEX
  8
0
 10
0.236220472441
 20
-1.446385457271E-017
 30
2.0E-016
 70
80
  0
VERTEX
  8
0
 10
-2.0E-016
 20
-5.904176070166E-034
 30
0.157480314961
 70
80
  0
VERTEX
  8
0
 10
7.874015748032E-002
 20
-4.821284857569E-018
 30
0.157480314961
 70
80
  0
VERTEX
  8
0
 10
0.157480314961
 20
-9.642569715137E-018
 30
7.874015748034E-002
 70
80
  0
VERTEX
  8
0
 10
0.157480314961
 20
-9.642569715137E-018
 30
2.0E-016
 70
80
  0
VERTEX
  8
0
 10
-7.714055772109E-017
 20
-2.952088035083E-034
 30
7.874015748031E-002
 70
80
  0
VERTEX
  8
0
 10
3.937007874016E-002
 20
-2.410642428784E-018
 30
7.874015748032E-002
 70
80
  0
VERTEX
  8
0
 10
7.874015748031E-002
 20
-4.821284857568E-018
 30
3.937007874017E-002
 70
80
  0
VERTEX
  8
0
 10
7.874015748031E-002
 20
-4.821284857568E-018
 30
7.714055772109E-017
 70
80
  0
VERTEX
  8
0
 10
0.0
 20
0.0
 30
0.0
 70
80
  0
VERTEX
  8
0
 10
0.0
 20
0.0
 30
0.0
 70
80
  0
VERTEX
  8
0
 10
0.0
 20
0.0
 30
0.0
 70
80
  0
VERTEX
  8
0
 10
0.0
 20
0.0
 30
0.0
 70
80
  0
SEQEND
  0
POLYLINE
  8
0
 62
253
 66
1
 70
20
 75
6
 71
4
 72
4
 73
2
 74
2
  0
VERTEX
  8
0
 10
2.0E-016
 20
-8.856264105249E-034
 30
-0.236220472441
 70
72
  0
VERTEX
  8
0
 10
-0.236220472441
 20
-1.446385457271E-017
 30
-2.0E-016
 70
72
  0
VERTEX
  8
0
 10
0.0
 20
0.0
 30
0.0
 70
72
  0
VERTEX
  8
0
 10
0.0
 20
0.0
 30
0.0
 70
72
  0
VERTEX
  8
0
 10
2.0E-016
 20
-8.856264105249E-034
 30
-0.236220472441
 70
80
  0
VERTEX
  8
0
 10
-0.13228345856
 20
-8.099758192880E-018
 30
-0.236220472441
 70
80
  0
VERTEX
  8
0
 10
-0.236220472441
 20
-1.446385457271E-017
 30
-0.13228345856
 70
80
  0
VERTEX
  8
0
 10
-0.236220472441
 20
-1.446385457271E-017
 30
-2.0E-016
 70
80
  0
VERTEX
  8
0
 10
1.0E-016
 20
-5.904176070166E-034
 30
-0.157480314961
 70
80
  0
VERTEX
  8
0
 10
-7.874015748032E-002
 20
-4.821284857569E-018
 30
-0.157480314961
 70
80
  0
VERTEX
  8
0
 10
-0.157480314961
 20
-9.642569715137E-018
 30
-7.874015748034E-002
 70
80
  0
VERTEX
  8
0
 10
-0.157480314961
 20
-9.642569715137E-018
 30
-1.0E-016
 70
80
  0
VERTEX
  8
0
 10
6.749798800596E-017
 20
-2.952088035083E-034
 30
-7.874015748031E-002
 70
80
  0
VERTEX
  8
0
 10
-3.937007874016E-002
 20
-2.410642428784E-018
 30
-7.874015748032E-002
 70
80
  0
VERTEX
  8
0
 10
-7.874015748031E-002
 20
-4.821284857568E-018
 30
-3.937007874017E-002
 70
80
  0
VERTEX
  8
0
 10
-7.874015748031E-002
 20
-4.821284857568E-018
 30
-6.749798800596E-017
 70
80
  0
VERTEX
  8
0
 10
0.0
 20
0.0
 30
0.0
 70
80
  0
VERTEX
  8
0
 10
0.0
 20
0.0
 30
0.0
 70
80
  0
VERTEX
  8
0
 10
0.0
 20
0.0
 30
0.0
 70
80
  0
VERTEX
  8
0
 10
0.0
 20
0.0
 30
0.0
 70
80
  0
SEQEND
  0
POLYLINE
  8
0
 62
253
 66
1
 70
20
 75
6
 71
4
 72
4
 73
2
 74
2
  0
VERTEX
  8
0
 10
0.236220472441
 20
-8.856264105249E-034
 30
2.0E-016
 70
72
  0
VERTEX
  8
0
 10
2.0E-016
 20
-1.446385457271E-017
 30
-0.236220472441
 70
72
  0
VERTEX
  8
0
 10
0.0
 20
0.0
 30
0.0
 70
72
  0
VERTEX
  8
0
 10
0.0
 20
0.0
 30
0.0
 70
72
  0
VERTEX
  8
0
 10
0.236220472441
 20
-8.856264105249E-034
 30
2.0E-016
 70
80
  0
VERTEX
  8
0
 10
0.236220472441
 20
-8.099758192880E-018
 30
-0.13228345856
 70
80
  0
VERTEX
  8
0
 10
0.13228345856
 20
-1.446385457271E-017
 30
-0.236220472441
 70
80
  0
VERTEX
  8
0
 10
2.0E-016
 20
-1.446385457271E-017
 30
-0.236220472441
 70
80
  0
VERTEX
  8
0
 10
0.157480314961
 20
-5.904176070166E-034
 30
1.0E-016
 70
80
  0
VERTEX
  8
0
 10
0.157480314961
 20
-4.821284857569E-018
 30
-7.874015748032E-002
 70
80
  0
VERTEX
  8
0
 10
7.874015748034E-002
 20
-9.642569715137E-018
 30
-0.157480314961
 70
80
  0
VERTEX
  8
0
 10
1.0E-016
 20
-9.642569715137E-018
 30
-0.157480314961
 70
80
  0
VERTEX
  8
0
 10
7.874015748031E-002
 20
-2.952088035083E-034
 30
6.267670314839E-017
 70
80
  0
VERTEX
  8
0
 10
7.874015748032E-002
 20
-2.410642428784E-018
 30
-3.937007874016E-002
 70
80
  0
VERTEX
  8
0
 10
3.937007874017E-002
 20
-4.821284857568E-018
 30
-7.874015748031E-002
 70
80
  0
VERTEX
  8
0
 10
6.267670314839E-017
 20
-4.821284857568E-018
 30
-7.874015748031E-002
 70
80
  0
VERTEX
  8
0
 10
0.0
 20
0.0
 30
0.0
 70
80
  0
VERTEX
  8
0
 10
0.0
 20
0.0
 30
0.0
 70
80
  0
VERTEX
  8
0
 10
0.0
 20
0.0
 30
0.0
 70
80
  0
VERTEX
  8
0
 10
0.0
 20
0.0
 30
0.0
 70
80
  0
SEQEND
  0
ENDSEC
  0
EOF
